<svg width="100" height="100" viewBox="0 0 100 100" fill="none" xmlns="http://www.w3.org/2000/svg">
<rect width="100" height="100" rx="50" fill="#16216B"/>
<path fill-rule="evenodd" clip-rule="evenodd" d="M66.9761 41.3129L34.7502 61.4498L33.0242 58.6876L65.2501 38.5507L66.9761 41.3129Z" fill="white"/>
<path fill-rule="evenodd" clip-rule="evenodd" d="M63.8688 39.4133C57.3739 43.4717 55.6343 52.5014 59.4408 58.593L60.3038 59.9741L63.066 58.2481L62.203 56.867C59.3125 52.2412 60.6836 45.2444 65.5948 42.1755L66.9759 41.3125L65.2499 38.5503L63.8688 39.4133Z" fill="white"/>
<path fill-rule="evenodd" clip-rule="evenodd" d="M65.595 42.1759C59.1001 46.2343 50.2217 43.8395 46.4152 37.7479L45.5522 36.3668L48.3144 34.6408L49.1775 36.0219C52.0668 40.6458 58.9577 42.4825 63.8689 39.4137L65.2501 38.5507L66.9761 41.3129L65.595 42.1759Z" fill="#E9E9E9"/>
</svg>
