<svg width="28" height="20" viewBox="0 0 28 20" fill="none" xmlns="http://www.w3.org/2000/svg">
<path d="M25.6112 14.9978H25.581V13.5162C25.581 13.2656 25.3779 13.0626 25.1274 13.0626H24.6134V9.77303C24.6134 8.92704 24.0452 8.17382 23.2317 7.9413L21.7106 7.50672V6.80938C22.0162 6.54148 22.1944 6.15438 22.1944 5.74139V4.29374H22.7084C22.9589 4.29374 23.162 4.09072 23.162 3.84017C23.162 3.58962 22.9589 3.38661 22.7084 3.38661H22.6782V3.35637C22.6782 1.9268 21.6283 0.738099 20.2592 0.519965V0.453564C20.2592 0.203015 20.0561 0 19.8056 0C19.5551 0 19.3521 0.203015 19.3521 0.453564V0.519965C17.9829 0.738099 16.933 1.9268 16.933 3.35637V3.38661H16.9028C16.6523 3.38661 16.4492 3.58962 16.4492 3.84017C16.4492 4.09072 16.6523 4.29374 16.9028 4.29374H17.4168V5.74133C17.4168 6.15431 17.5949 6.54142 17.9006 6.80926V7.50666L16.3794 7.9413C15.566 8.17376 14.9978 8.92698 14.9978 9.77303V14.9978H14.4536V12.5486C14.4536 12.298 14.2505 12.095 14 12.095H13.0022V9.77303C13.0022 8.92704 12.434 8.17382 11.6205 7.9413L10.0994 7.50672V6.80938C10.405 6.54148 10.5832 6.15438 10.5832 5.74139V4.29374H11.0972C11.3477 4.29374 11.5508 4.09072 11.5508 3.84017C11.5508 3.58962 11.3477 3.38661 11.0972 3.38661H11.067V3.35637C11.067 1.9268 10.0171 0.738099 8.64795 0.519965V0.453564C8.64795 0.203015 8.44487 0 8.19438 0C7.9439 0 7.74082 0.203015 7.74082 0.453564V0.519965C6.37166 0.738099 5.32181 1.9268 5.32181 3.35637V3.38661H5.29158C5.04109 3.38661 4.83801 3.58962 4.83801 3.84017C4.83801 4.09072 5.04109 4.29374 5.29158 4.29374H5.80562V5.74133C5.80562 6.15431 5.98372 6.54142 6.28942 6.80926V7.50666L4.76816 7.9413C3.95477 8.17376 3.38661 8.92698 3.38661 9.77303V14.9978H2.38877C1.07162 14.9978 0 16.0695 0 17.3866C0 18.7038 1.07162 19.7754 2.38877 19.7754H25.6112C26.9284 19.7754 28 18.7038 28 17.3866C28 16.0695 26.9284 14.9978 25.6112 14.9978ZM24.6739 14.9978H19.7754V13.9698H24.6739V14.9978ZM17.8402 14.9978V10.6134C17.8402 10.5968 17.8537 10.5832 17.8704 10.5832H21.7408C21.7575 10.5832 21.7711 10.5968 21.7711 10.6134V13.0626H19.3218C19.0713 13.0626 18.8683 13.2656 18.8683 13.5162V14.9978H17.8402ZM18.8266 7.44177C19.0609 7.59786 19.3334 7.68035 19.6149 7.68035H19.9967C20.2781 7.68035 20.5507 7.5978 20.7851 7.44165L20.8036 7.42931V7.84992C20.8036 7.85427 20.8035 7.85869 20.8036 7.86298V7.9829C20.7175 8.06085 20.3825 8.22462 19.8057 8.22462C19.2289 8.22462 18.894 8.06085 18.8079 7.9829V7.42919L18.8266 7.44177ZM18.324 9.67603V8.7559C18.6619 8.99163 19.1812 9.13175 19.8056 9.13175C20.43 9.13175 20.9493 8.99163 21.2873 8.7559V9.67603H18.324ZM23.7063 9.77303V13.0626H22.6782V10.6134C22.6782 10.261 22.4825 9.95373 22.1944 9.79365V8.58832L22.9826 8.81347C23.4087 8.93527 23.7063 9.32981 23.7063 9.77303ZM21.7711 3.35637V3.38661H21.7408H20.2592V1.44433C21.1249 1.6497 21.7711 2.42874 21.7711 3.35637ZM17.8402 3.35637C17.8402 2.42874 18.4864 1.6497 19.3521 1.44433V3.38661H17.8704H17.8402V3.35637ZM21.2873 4.29374V5.74139C21.2873 5.91362 21.2017 6.07352 21.0584 6.16907L20.2818 6.68686C20.197 6.7434 20.0984 6.77328 19.9966 6.77328H19.6149C19.513 6.77328 19.4145 6.74346 19.3297 6.68698L18.5529 6.16913C18.4095 6.07358 18.3239 5.91362 18.3239 5.74139V4.29374H21.2873ZM15.905 9.77303C15.905 9.32987 16.2026 8.93527 16.6287 8.81353L17.4168 8.58826V9.79365C17.1287 9.95373 16.933 10.261 16.933 10.6134V14.9978H15.905V9.77303ZM13.5464 14.9978H8.64795V13.0022H13.5464V14.9978ZM6.22894 14.9978V10.6134C6.22894 10.5968 6.24249 10.5832 6.25918 10.5832H10.1296C10.1463 10.5832 10.1598 10.5968 10.1598 10.6134V12.095H8.19438C7.9439 12.095 7.74082 12.298 7.74082 12.5486V14.9978H6.22894ZM7.21541 7.44177C7.44963 7.59786 7.72219 7.68035 8.00371 7.68035H8.38543C8.66688 7.68035 8.9395 7.5978 9.17384 7.44165L9.19235 7.42931V7.84992C9.19235 7.85427 9.19222 7.85869 9.19235 7.86298V7.9829C9.10623 8.06085 8.77132 8.22462 8.19451 8.22462C7.61769 8.22462 7.28278 8.06085 7.19667 7.9829V7.42919L7.21541 7.44177ZM6.71274 9.67603V8.7559C7.05068 8.99163 7.56998 9.13175 8.19438 9.13175C8.81879 9.13175 9.33809 8.99163 9.67603 8.7559V9.67603H6.71274ZM12.095 9.77303V12.095H11.067V10.6134C11.067 10.261 10.8713 9.95373 10.5832 9.79365V8.58832L11.3713 8.81347C11.7974 8.93527 12.095 9.32981 12.095 9.77303ZM10.1598 3.35637V3.38661H10.1296H8.64795V1.44433C9.51365 1.6497 10.1598 2.42874 10.1598 3.35637ZM6.22894 3.35637C6.22894 2.42874 6.87512 1.6497 7.74082 1.44433V3.38661H6.25918H6.22894V3.35637ZM9.67603 4.29374V5.74139C9.67603 5.91362 9.59045 6.07352 9.44713 6.16907L8.67057 6.68686C8.58578 6.7434 8.48715 6.77328 8.38537 6.77328H8.00365C7.90181 6.77328 7.80323 6.74346 7.71851 6.68698L6.94164 6.16913C6.79826 6.07358 6.71268 5.91362 6.71268 5.74139V4.29374H9.67603ZM4.29374 9.77303C4.29374 9.32987 4.59133 8.93527 5.01744 8.81353L5.80562 8.58826V9.79365C5.51745 9.95373 5.32181 10.261 5.32181 10.6134V14.9978H4.29374V9.77303ZM25.6112 18.8682H2.38877C1.57181 18.8682 0.907127 18.2036 0.907127 17.3866C0.907127 16.5696 1.57181 15.905 2.38877 15.905H25.6112C26.4282 15.905 27.0929 16.5696 27.0929 17.3866C27.0929 18.2036 26.4282 18.8682 25.6112 18.8682Z" fill="#16216B"/>
</svg>
