<svg width="23" height="26" viewBox="0 0 23 26" fill="none" xmlns="http://www.w3.org/2000/svg">
<path d="M18.2048 0.11855C15.8558 -0.396073 13.4619 0.801379 11.8801 2.99991C12.8095 4.09166 13.5256 5.49177 13.8921 7.09251C14.5601 10.0091 13.8987 12.8516 12.3607 14.6607C12.9047 15.167 13.531 15.5596 14.2252 15.8072L13.1238 16.8733L14.1281 17.0934L11.499 25.8742L8.99939 17.5765L10.0366 17.3304L8.91746 16.2836C11.967 15.136 13.6483 11.1868 12.7108 7.09251C11.7112 2.72732 8.11356 -0.149668 4.67523 0.666371C1.23689 1.48241 -0.740134 5.68263 0.259417 10.0476C1.19693 14.142 4.42025 16.9271 7.65393 16.5834L7.10488 18.0262L8.42481 17.7128L10.9212 26H12.0766L14.7056 17.2198L16.0667 17.5181L15.4935 16.0851C18.7324 16.3725 21.9086 13.5318 22.7773 9.4218C23.7035 5.03977 21.6563 0.874665 18.2048 0.11855ZM2.40661 11.4632C0.134517 8.84857 1.58899 4.99854 1.65197 4.83585L2.06263 5.00082L2.47347 5.16525C2.46005 5.20001 1.15738 8.66898 3.06789 10.8676L2.40661 11.4632ZM21.2811 8.89837L20.4743 8.53343C21.6448 5.85066 19.3753 2.94305 19.3523 2.91404L19.6953 2.63108L19.3526 2.91446L20.0379 2.34783C20.1461 2.48349 22.6731 5.70792 21.2811 8.89837Z" fill="#16216B"/>
</svg>
