<svg width="26" height="21" viewBox="0 0 26 21" fill="none" xmlns="http://www.w3.org/2000/svg">
<path d="M0.949 0.363021C1.06819 0.183545 1.25378 0.0587549 1.46496 0.0160924C1.67614 -0.0265702 1.89561 0.016388 2.07512 0.13552L4.51262 1.76215C4.68504 1.8844 4.80304 2.06903 4.84156 2.27685C4.88008 2.48467 4.8361 2.69933 4.71896 2.87526C4.60181 3.05119 4.42072 3.17454 4.21412 3.21914C4.00752 3.26375 3.79166 3.22608 3.61238 3.11415L1.17488 1.48915C0.995664 1.3697 0.871205 1.184 0.828851 0.972835C0.786497 0.761673 0.829712 0.542335 0.949 0.363021ZM13 0.000645553C11.0606 0.000645553 9.20064 0.771067 7.82928 2.14243C6.45792 3.51379 5.6875 5.37375 5.6875 7.31315V11.2148L4.121 15.1359C4.0716 15.2592 4.05316 15.3927 4.06732 15.5247C4.08147 15.6568 4.12778 15.7834 4.20218 15.8934C4.27659 16.0034 4.37683 16.0935 4.49412 16.1557C4.61142 16.218 4.74219 16.2506 4.875 16.2506H21.125C21.2576 16.2505 21.3882 16.2179 21.5053 16.1557C21.6224 16.0935 21.7225 16.0036 21.7969 15.8938C21.8712 15.784 21.9176 15.6577 21.9319 15.5259C21.9462 15.394 21.9281 15.2607 21.879 15.1375L20.3125 11.2131V7.31315C20.3125 5.37375 19.5421 3.51379 18.1707 2.14243C16.7994 0.771067 14.9394 0.000645553 13 0.000645553ZM13 20.3131C12.2793 20.3133 11.5791 20.074 11.0093 19.6327C10.4395 19.1915 10.0325 18.5734 9.85238 17.8756H16.1476C15.9675 18.5734 15.5605 19.1915 14.9907 19.6327C14.4209 20.074 13.7207 20.3133 13 20.3131ZM23.9249 0.137146C24.1042 0.0252102 24.32 -0.012454 24.5266 0.0321471C24.7332 0.0767482 24.9143 0.200104 25.0315 0.376033C25.1486 0.551962 25.1926 0.766616 25.1541 0.974439C25.1155 1.18226 24.9975 1.36689 24.8251 1.48915L22.3876 3.11415C22.2083 3.22608 21.9925 3.26375 21.7859 3.21914C21.5793 3.17454 21.3982 3.05119 21.281 2.87526C21.1639 2.69933 21.1199 2.48467 21.1584 2.27685C21.197 2.06903 21.315 1.8844 21.4874 1.76215L23.9249 0.137146ZM0 7.31315C0 7.09766 0.0856024 6.89099 0.237976 6.73862C0.390349 6.58625 0.597012 6.50065 0.8125 6.50065H3.25C3.46549 6.50065 3.67215 6.58625 3.82452 6.73862C3.9769 6.89099 4.0625 7.09766 4.0625 7.31315C4.0625 7.52863 3.9769 7.7353 3.82452 7.88767C3.67215 8.04004 3.46549 8.12565 3.25 8.12565H0.8125C0.597012 8.12565 0.390349 8.04004 0.237976 7.88767C0.0856024 7.7353 0 7.52863 0 7.31315ZM25.1875 6.50065C25.403 6.50065 25.6097 6.58625 25.762 6.73862C25.9144 6.89099 26 7.09766 26 7.31315C26 7.52863 25.9144 7.7353 25.762 7.88767C25.6097 8.04004 25.403 8.12565 25.1875 8.12565H22.75C22.5345 8.12565 22.3278 8.04004 22.1755 7.88767C22.0231 7.7353 21.9375 7.52863 21.9375 7.31315C21.9375 7.09766 22.0231 6.89099 22.1755 6.73862C22.3278 6.58625 22.5345 6.50065 22.75 6.50065H25.1875Z" fill="#16216B"/>
</svg>
