<svg width="14" height="13" viewBox="0 0 14 13" fill="none" xmlns="http://www.w3.org/2000/svg">
<path d="M4.27499 7.125H0.187492C0.142293 7.12242 0.0992632 7.10476 0.0652752 7.07485C0.0312881 7.04494 0.00830269 7.00451 -7.62939e-06 6.96V1.5C-7.62939e-06 1.10218 0.158029 0.720644 0.439333 0.43934C0.720637 0.158035 1.10217 0 1.49999 0H5.02499C5.07472 0 5.12241 0.0197543 5.15758 0.0549173C5.19274 0.0900804 5.21249 0.137772 5.21249 0.1875V0.375C5.21249 0.872281 5.41004 1.34919 5.76167 1.70083C6.1133 2.05246 6.59021 2.25 7.08749 2.25C7.58477 2.25 8.06169 2.05246 8.41332 1.70083C8.76495 1.34919 8.96249 0.872281 8.96249 0.375V0.1875C8.96249 0.137772 8.98225 0.0900804 9.01741 0.0549173C9.05257 0.0197543 9.10026 0 9.14999 0H11.9925C12.3903 0 12.7718 0.158035 13.0532 0.43934C13.3345 0.720644 13.4925 1.10218 13.4925 1.5V11.25C13.4925 11.6478 13.3345 12.0294 13.0532 12.3107C12.7718 12.592 12.3903 12.75 11.9925 12.75H5.75999C5.71291 12.7462 5.66899 12.7248 5.637 12.69C5.60502 12.6553 5.58734 12.6097 5.58749 12.5625V8.4375C5.58749 8.0894 5.44921 7.75556 5.20307 7.50942C4.95693 7.26328 4.62309 7.125 4.27499 7.125ZM8.02499 9H10.275C10.4242 9 10.5673 8.94074 10.6727 8.83525C10.7782 8.72976 10.8375 8.58668 10.8375 8.4375C10.8375 8.28832 10.7782 8.14524 10.6727 8.03975C10.5673 7.93426 10.4242 7.875 10.275 7.875H8.02499C7.87581 7.875 7.73273 7.93426 7.62725 8.03975C7.52176 8.14524 7.46249 8.28832 7.46249 8.4375C7.46249 8.58668 7.52176 8.72976 7.62725 8.83525C7.73273 8.94074 7.87581 9 8.02499 9ZM10.275 5.625C10.4242 5.625 10.5673 5.56574 10.6727 5.46025C10.7782 5.35476 10.8375 5.21168 10.8375 5.0625C10.8375 4.91332 10.7782 4.77024 10.6727 4.66475C10.5673 4.55926 10.4242 4.5 10.275 4.5H3.14999C3.00081 4.5 2.85773 4.55926 2.75224 4.66475C2.64676 4.77024 2.58749 4.91332 2.58749 5.0625C2.58749 5.21168 2.64676 5.35476 2.75224 5.46025C2.85773 5.56574 3.00081 5.625 3.14999 5.625H10.275Z" fill="#0F2A66"/>
</svg>
