<svg width="70" height="70" viewBox="0 0 70 70" fill="none" xmlns="http://www.w3.org/2000/svg">
<g clip-path="url(#clip0_186_11581)">
<path d="M17.1688 5.85174C17.1688 4.63228 16.1801 3.64355 14.9606 3.64355C13.7412 3.64355 12.7524 4.63228 12.7524 5.85174V35.2484H17.1688V5.85174Z" fill="#16216B"/>
<path d="M9.3343 59.1925C11.1357 56.1988 14.5126 54.1771 18.3763 54.1771C19.1682 54.1771 19.9498 54.2617 20.7132 54.4299C21.8195 52.0874 23.8314 50.2646 26.2715 49.3063C26.2731 49.2363 26.2776 49.1667 26.2776 49.0963V37.4567C26.2776 36.2373 25.2889 35.2485 24.0694 35.2485H17.1689V45.9307C17.1689 47.1502 16.1802 48.1389 14.9607 48.1389C13.7412 48.1389 12.7525 47.1502 12.7525 45.9307V35.2485H5.85174C4.63228 35.2485 3.64355 36.2373 3.64355 37.4567V49.0963C3.64355 53.2751 6.58874 56.8069 9.3343 59.1925Z" fill="#16216B"/>
<path d="M67.7918 61.9401H54.9262C53.9429 59.2268 51.2011 57.2685 47.9799 57.2685C47.5564 57.2685 47.1213 57.3052 46.6867 57.3776C45.8476 57.5181 45.0524 56.9529 44.9089 56.1138C44.7474 55.1708 43.8374 54.4597 42.7919 54.4597C42.6437 54.4597 42.4945 54.4739 42.3484 54.5019C41.8937 54.5891 41.4228 54.4678 41.0671 54.1708C40.7112 53.8738 40.5076 53.4331 40.5116 52.9697L40.5133 52.9014C40.506 50.6621 38.5462 48.8428 36.1381 48.8428C34.5553 48.8428 33.0909 49.6444 32.3162 50.9348C32.0136 51.4389 31.4531 51.7257 30.8658 51.68C30.6287 51.6607 30.4168 51.6513 30.2174 51.6513C26.9062 51.6513 23.9937 53.7444 23.1346 56.7417C23.0156 57.1565 22.7286 57.503 22.343 57.6967C21.9567 57.8907 21.5079 57.9145 21.1042 57.7622C20.2333 57.4344 19.3153 57.2682 18.3758 57.2682C15.1546 57.2682 12.4129 59.2266 11.4296 61.9398H2.20818C0.988721 61.9398 0 62.9286 0 64.148C0 65.3675 0.988721 66.3562 2.20818 66.3562H67.7918C69.0113 66.3562 70 65.3675 70 64.148C70 62.9286 69.0113 61.9401 67.7918 61.9401Z" fill="#16216B"/>
</g>
<defs>
<clipPath id="clip0_186_11581">
<rect width="70" height="70" fill="white"/>
</clipPath>
</defs>
</svg>
