<svg width="26" height="25" viewBox="0 0 26 25" fill="none" xmlns="http://www.w3.org/2000/svg">
<path d="M12.2709 0C8.14775 0.0368333 4.20333 3.45583 4.4915 8.39583C4.602 10.0718 5.44483 12.0597 7.72092 14.6066C7.77362 14.6647 7.84241 14.7058 7.91853 14.7247C7.99466 14.7436 8.07468 14.7394 8.14842 14.7127C8.22217 14.686 8.2863 14.6379 8.33267 14.5747C8.37904 14.5114 8.40555 14.4358 8.40883 14.3574L8.46625 11.9026C8.46795 11.7998 8.42902 11.7005 8.35792 11.6263C7.64235 10.8673 7.15887 9.91933 6.96453 8.89441C6.77019 7.8695 6.87312 6.81037 7.26115 5.84205C7.64919 4.87373 8.30614 4.03662 9.15447 3.42953C10.0028 2.82243 11.0071 2.4707 12.0488 2.41583C14.508 2.30317 16.3941 3.75483 17.1979 5.3885C17.5662 6.13925 17.7688 6.95933 17.7937 7.79567C17.7972 7.89321 17.8375 7.98583 17.9064 8.05495C17.9753 8.12406 18.0678 8.16457 18.1653 8.16833C18.6875 8.18458 19.2075 8.23767 19.7221 8.32758C19.7774 8.33778 19.8342 8.33587 19.8887 8.32198C19.9432 8.30809 19.994 8.28256 20.0377 8.24714C20.0813 8.21171 20.1168 8.16725 20.1416 8.1168C20.1664 8.06635 20.18 8.01112 20.1814 7.95492C20.1971 6.74948 19.9347 5.55664 19.4144 4.46914C18.8941 3.38164 18.1301 2.42876 17.1817 1.68458C16.2717 0.966333 14.6943 0.00866667 12.2709 0ZM17.6226 9.05883C16.708 9.07483 15.7965 9.16906 14.898 9.3405C14.8247 9.35403 14.7567 9.38807 14.702 9.43865C14.6472 9.48923 14.608 9.5543 14.5887 9.6263C14.5694 9.6983 14.5709 9.77429 14.5931 9.84547C14.6152 9.91664 14.6571 9.98007 14.7138 10.0284L16.5501 11.583C16.597 11.622 16.6524 11.6495 16.7118 11.6633C16.7713 11.677 16.8331 11.6766 16.8924 11.6621C18.0238 11.4002 19.2092 11.5068 20.2757 11.9665C22.204 12.8191 23.439 14.5817 23.5712 16.6292C23.7965 20.0818 20.8845 22.6298 17.8544 22.4467C17.2004 22.413 16.5579 22.2618 15.9575 22.0003C15.8753 21.9633 15.7829 21.9554 15.6956 21.9781C15.6083 22.0007 15.5314 22.0525 15.4776 22.1249C15.1645 22.542 14.8243 22.9374 14.4592 23.3101C14.4177 23.3542 14.3868 23.4073 14.3688 23.4652C14.3509 23.5232 14.3465 23.5844 14.3559 23.6443C14.3653 23.7043 14.3883 23.7612 14.4231 23.8109C14.4579 23.8605 14.5036 23.9016 14.5567 23.9308C16.601 25.0933 18.8207 25.1875 21.0719 24.2775C24.6502 22.8648 26.0877 19.3776 25.9957 16.8599C25.8917 13.9988 24.3923 11.3653 21.5702 9.92442C20.5725 9.41525 19.3592 9.04475 17.6226 9.05883ZM3.614 10.3588C3.5556 10.3651 3.49934 10.3844 3.44933 10.4152C1.92183 11.3111 1.04867 12.6436 0.418167 14.5069C0.109417 15.4733 0 16.1428 0 17.1459C0.037644 19.1889 0.867139 21.1374 2.31358 22.5806C3.76003 24.0238 5.71039 24.8489 7.75342 24.882C8.9765 24.9004 10.0328 24.6274 10.9622 24.2504C12.5331 23.5788 14.3661 22.5203 15.9997 18.9291C16.0317 18.8582 16.042 18.7794 16.0293 18.7027C16.0165 18.626 15.9813 18.5548 15.9281 18.4981C15.8748 18.4414 15.806 18.4018 15.7303 18.3842C15.6545 18.3666 15.5753 18.3719 15.5025 18.3993L12.9404 19.3386C12.8487 19.3725 12.7732 19.4398 12.7292 19.5271C12.1919 20.5745 11.3299 21.4198 10.2722 21.9364C6.5 23.7423 2.67908 20.878 2.42125 17.5803C2.26417 15.6943 2.95642 14.2729 3.90542 13.2665C4.22283 12.9328 4.34958 12.7498 4.62367 12.5493C4.70118 12.4924 4.7549 12.4087 4.7745 12.3145C4.79409 12.2204 4.77819 12.1223 4.72983 12.0391C4.45577 11.5801 4.2192 11.0997 4.02242 10.6026C3.98985 10.5233 3.93245 10.4566 3.85881 10.4127C3.78518 10.3687 3.69928 10.3498 3.614 10.3588Z" fill="#16216B"/>
</svg>
