<svg width="15" height="12" viewBox="0 0 15 12" fill="none" xmlns="http://www.w3.org/2000/svg">
<path d="M0 2.0625C0 1.51549 0.217299 0.990886 0.604092 0.604092C0.990886 0.217298 1.51549 0 2.0625 0H12.9375C13.4845 0 14.0091 0.217298 14.3959 0.604092C14.7827 0.990886 15 1.51549 15 2.0625V9.9375C15 10.2084 14.9467 10.4766 14.843 10.7268C14.7394 10.977 14.5874 11.2044 14.3959 11.3959C14.2044 11.5874 13.977 11.7394 13.7268 11.843C13.4766 11.9467 13.2084 12 12.9375 12H2.0625C1.79165 12 1.52345 11.9467 1.27322 11.843C1.02298 11.7394 0.795613 11.5874 0.604092 11.3959C0.412571 11.2044 0.260649 10.977 0.156998 10.7268C0.0533481 10.4766 0 10.2084 0 9.9375V2.0625ZM11.085 2.415C10.9796 2.30948 10.8366 2.25013 10.6875 2.25H8.8125C8.66332 2.25 8.52024 2.30926 8.41475 2.41475C8.30926 2.52024 8.25 2.66332 8.25 2.8125C8.25 2.96168 8.30926 3.10476 8.41475 3.21025C8.52024 3.31574 8.66332 3.375 8.8125 3.375H9.33L8.04 4.66425C7.98474 4.71575 7.94041 4.77785 7.90966 4.84685C7.87892 4.91585 7.86239 4.99033 7.86106 5.06586C7.85972 5.14139 7.87362 5.21641 7.90191 5.28645C7.9302 5.35649 7.97231 5.42011 8.02572 5.47353C8.07914 5.52694 8.14276 5.56905 8.2128 5.59734C8.28284 5.62563 8.35786 5.63953 8.43339 5.63819C8.50892 5.63686 8.5834 5.62033 8.6524 5.58959C8.7214 5.55884 8.7835 5.51452 8.835 5.45925L10.125 4.17V4.6875C10.125 4.83668 10.1843 4.97976 10.2898 5.08525C10.3952 5.19074 10.5383 5.25 10.6875 5.25C10.8367 5.25 10.9798 5.19074 11.0852 5.08525C11.1907 4.97976 11.25 4.83668 11.25 4.6875V2.8125C11.2499 2.66337 11.1905 2.52039 11.085 2.415ZM4.3125 9.75H6.18825C6.33743 9.75 6.48051 9.69074 6.586 9.58525C6.69149 9.47976 6.75075 9.33668 6.75075 9.1875C6.75075 9.03832 6.69149 8.89524 6.586 8.78975C6.48051 8.68426 6.33743 8.625 6.18825 8.625H5.67075L6.96075 7.335C7.06317 7.22886 7.1198 7.08675 7.11845 6.93926C7.11709 6.79178 7.05787 6.65072 6.95353 6.54648C6.84919 6.44223 6.70808 6.38314 6.56059 6.38193C6.4131 6.38072 6.27104 6.43749 6.165 6.54L4.875 7.8285V7.311C4.875 7.16182 4.81574 7.01874 4.71025 6.91325C4.60476 6.80776 4.46168 6.7485 4.3125 6.7485C4.16332 6.7485 4.02024 6.80776 3.91475 6.91325C3.80926 7.01874 3.75 7.16182 3.75 7.311V9.186C3.75 9.33518 3.80926 9.47826 3.91475 9.58375C4.02024 9.68924 4.16332 9.7485 4.3125 9.7485" fill="#0F2A66"/>
</svg>
