<svg width="26" height="26" viewBox="0 0 26 26" fill="none" xmlns="http://www.w3.org/2000/svg">
<path d="M22 22V19C22 18.44 22.44 18 23 18H25C25.56 18 26 18.44 26 19V25C26 25.56 25.56 26 25 26H1C0.44 26 0 25.56 0 25V19C0 18.44 0.44 18 1 18H3C3.56 18 4 18.44 4 19V22H22ZM12 9L9.32 7.66C8.32375 7.16264 7.48555 6.39785 6.89921 5.45123C6.31287 4.50461 6.00152 3.4135 6 2.3V0C9.2 1.06 11.74 3.46 13 6.52C14.26 3.46 16.8 1.06 20 0V2.3C19.9985 3.4135 19.6871 4.50461 19.1008 5.45123C18.5144 6.39785 17.6763 7.16264 16.68 7.66L14 9V13.92C15.8997 11.0789 18.7276 8.98619 22 8C22.0005 10.3053 21.2044 12.54 19.7466 14.3258C18.2888 16.1116 16.2587 17.3389 14 17.8V21H12V17.8C9.74127 17.3389 7.71121 16.1116 6.25339 14.3258C4.79557 12.54 3.99953 10.3053 4 8C7.27235 8.98619 10.1003 11.0789 12 13.92V9Z" fill="#16216B"/>
</svg>
