<svg width="20" height="22" viewBox="0 0 20 22" fill="none" xmlns="http://www.w3.org/2000/svg">
<path d="M0.75 8.98376L1.497 8.91976C1.47978 8.72767 1.38924 8.5496 1.24416 8.42253C1.09909 8.29545 0.910639 8.22915 0.717959 8.23739C0.525279 8.24563 0.343177 8.32777 0.209478 8.46676C0.0757788 8.60575 0.000758622 8.7909 0 8.98376H0.75ZM17.986 10.8068L17.28 14.8868L18.759 15.1428L19.464 11.0628L17.986 10.8068ZM10.995 19.9998H6.346V21.4998H10.995V19.9998ZM5.435 19.1618L4.623 9.76976L3.128 9.89876L3.941 19.2918L5.435 19.1618ZM17.28 14.8868C16.773 17.8168 14.131 19.9998 10.995 19.9998V21.4998C14.821 21.4998 18.121 18.8308 18.759 15.1428L17.28 14.8868ZM11.005 3.84976L10.342 7.89476L11.822 8.13676L12.485 4.09276L11.005 3.84976ZM4.938 8.99576L6.377 7.75576L5.397 6.61876L3.958 7.85876L4.938 8.99576ZM8.994 3.72176L9.47 1.88776L8.018 1.51175L7.542 3.34476L8.994 3.72176ZM10.188 1.52776L10.333 1.57476L10.792 0.146755L10.647 0.0997562L10.188 1.52776ZM8.273 5.56576C8.585 4.98176 8.828 4.36276 8.994 3.72176L7.542 3.34476C7.40421 3.87104 7.20553 4.37948 6.95 4.85976L8.273 5.56576ZM10.333 1.57476C10.4755 1.61841 10.6047 1.69714 10.7088 1.80372C10.813 1.9103 10.8887 2.04132 10.929 2.18476L12.381 1.80876C12.2781 1.42006 12.0784 1.06376 11.8005 0.77313C11.5227 0.482498 11.1757 0.267 10.792 0.146755L10.333 1.57476ZM9.47 1.88776C9.48962 1.81558 9.52487 1.74861 9.57326 1.69158C9.62165 1.63455 9.68199 1.58887 9.75 1.55776L9.099 0.206757C8.83466 0.332451 8.60097 0.51436 8.41425 0.739769C8.22753 0.965178 8.0923 1.22864 8.018 1.51175L9.47 1.88776ZM9.75 1.55776C9.88697 1.49278 10.0435 1.48206 10.188 1.52776L10.647 0.0997562C10.1363 -0.0635128 9.58242 -0.0252304 9.099 0.206757L9.75 1.55776ZM11.904 9.73376H17.084V8.23376H11.904V9.73376ZM2.469 20.1558L1.497 8.91976L0.00300002 9.04876L0.973 20.2848L2.469 20.1558ZM1.5 20.2628V8.98376H0V20.2628H1.5ZM0.973 20.2848C0.969949 20.2484 0.97549 20.2118 0.987334 20.1773C0.999178 20.1428 1.01807 20.1112 1.0428 20.0844C1.06753 20.0576 1.09757 20.0362 1.131 20.0217C1.16443 20.0071 1.20053 19.9996 1.237 19.9998V21.4998C1.963 21.4998 2.531 20.8778 2.469 20.1558L0.973 20.2848ZM12.485 4.09276C12.61 3.33276 12.575 2.55476 12.381 1.80876L10.929 2.18576C11.069 2.72876 11.096 3.29576 11.005 3.84976L12.485 4.09276ZM6.346 19.9998C6.11685 19.9993 5.89619 19.913 5.72754 19.7579C5.55889 19.6028 5.45451 19.3901 5.435 19.1618L3.941 19.2918C3.99303 19.8939 4.26888 20.4547 4.71411 20.8635C5.15933 21.2722 5.74159 21.4992 6.346 21.4998V19.9998ZM6.377 7.75576C7.057 7.16975 7.789 6.47276 8.274 5.56576L6.95 4.85876C6.604 5.50776 6.053 6.05476 5.397 6.61876L6.377 7.75576ZM19.464 11.0628C19.5242 10.7157 19.5078 10.3598 19.416 10.0198C19.3241 9.67974 19.1591 9.36392 18.9323 9.09441C18.7056 8.8249 18.4227 8.60822 18.1034 8.45955C17.7841 8.31089 17.4362 8.23382 17.084 8.23376V9.73376C17.2175 9.73382 17.3495 9.76309 17.4705 9.8195C17.5915 9.87591 17.6988 9.95811 17.7847 10.0603C17.8707 10.1626 17.9332 10.2823 17.968 10.4113C18.0027 10.5402 18.0089 10.6752 17.986 10.8068L19.464 11.0628ZM1.237 19.9998C1.30675 19.9998 1.37365 20.0275 1.42297 20.0768C1.47229 20.1261 1.5 20.193 1.5 20.2628H0C0 20.9448 0.553 21.4998 1.237 21.4998V19.9998ZM10.342 7.89476C10.3047 8.12134 10.3172 8.35331 10.3785 8.5746C10.4399 8.79588 10.5486 9.00117 10.6972 9.17622C10.8458 9.35128 11.0307 9.49191 11.2391 9.58835C11.4475 9.6848 11.6744 9.73376 11.904 9.73376V8.23376C11.854 8.23376 11.814 8.18876 11.822 8.13676L10.342 7.89476ZM4.623 9.76976C4.6108 9.62496 4.63208 9.47932 4.687 9.34479C4.74193 9.21025 4.82794 9.09065 4.938 8.99576L3.958 7.85876C3.66814 8.10889 3.44177 8.42423 3.29748 8.77886C3.1532 9.1335 3.09511 9.51731 3.128 9.89876L4.623 9.76976Z" fill="#16216B"/>
</svg>
