<svg width="26" height="26" viewBox="0 0 26 26" fill="none" xmlns="http://www.w3.org/2000/svg">
<path d="M0.75 7V12.625M0.75 7L2.4625 4.26875C3.53875 2.54875 4.0775 1.68875 4.925 1.21875C5.7725 0.75 6.7875 0.75 8.81625 0.75H16.5037C18.5775 0.75 19.615 0.75 20.4737 1.23625C21.335 1.72375 21.8675 2.6125 22.935 4.39125L24.5 7M0.75 7H24.5M0.75 24.5H14.5C19.2137 24.5 21.5712 24.5 23.035 23.035C24.4987 21.57 24.5 19.2137 24.5 14.5V7M12.625 7V0.75M10.125 10.75H15.125M0.75 17H4.5M0.75 20.75H8.25" stroke="#16216B" stroke-width="1.5" stroke-linecap="round" stroke-linejoin="round"/>
</svg>
