<svg width="70" height="55" viewBox="0 0 70 55" fill="none" xmlns="http://www.w3.org/2000/svg">
<path d="M69.1602 46.1966C68.8555 45.5825 67.9414 45.2755 67.3321 45.736L61.4211 49.0825L46.5828 22.8325C46.4305 22.679 45.5164 21.1439 44.1453 20.2229C42.3172 18.9948 40.2149 19.4553 39.9102 19.6088L36.8938 20.6834L28.85 15.4948L31.8664 9.69217C31.8664 9.69217 34.1516 5.57814 31.8664 2.66147C31.1047 1.4334 29.4289 0.358837 28.0883 0.0518195C25.6508 -0.255198 23.5485 0.819363 22.1774 2.81498L15.8094 14.8808C15.5047 15.3413 15.0477 16.4159 14.743 17.1834C14.5907 17.4904 14.1336 18.565 13.9813 19.793L11.6961 33.3939L1.85473 37.4773C-1.46636 39.0123 -0.278082 44.9685 5.02348 43.4334L15.8094 38.8588C16.1141 38.7053 16.5711 38.3983 16.8758 38.0913C16.8758 38.0913 17.0282 38.0913 17.0282 37.9378C17.3329 37.6308 17.4852 37.3238 17.6375 37.0167C17.6375 37.0167 17.6375 37.0167 17.6375 36.8632L19.9227 29.679L26.1383 36.4027L24.0055 50.6176C23.8532 55.3457 29.9164 55.1922 30.5258 50.6176L32.6586 36.7097C32.811 35.1746 32.2016 33.793 31.7446 32.9027L31.1352 31.6746L24.9196 22.986L26.7477 19.486C29.9164 21.4816 34.0297 24.0606 34.4868 24.3676C36.3149 25.5957 38.1125 24.2141 38.4172 22.5255L40.8547 21.6045C40.8547 21.6045 42.0735 21.2974 42.8352 21.9115C43.5969 22.372 44.2063 23.293 44.3586 23.6001L53.8953 40.5474C52.5243 39.3194 50.7266 38.3983 48.7461 38.3983C44.511 38.3983 41.0071 41.8983 41.0071 46.1966C41.0071 50.4641 44.4805 53.9948 48.7461 53.9948C52.9813 53.9948 56.4852 50.4948 56.4852 46.1966C56.4852 45.5825 56.4852 45.122 56.3328 44.508L60.111 51.0781C60.4157 51.5387 60.8727 51.8457 61.3297 51.8457C61.6344 51.8457 61.7868 51.8457 61.9391 51.6922L68.9164 47.7316C69.3125 47.7009 69.5868 46.9334 69.1602 46.1966ZM48.7766 50.2492C46.5524 50.2492 44.7547 48.4378 44.7547 46.1966C44.7547 43.9553 46.5524 42.1439 48.7766 42.1439C51.0008 42.1439 52.7985 43.9553 52.7985 46.1966C52.7985 48.4378 51.0008 50.2492 48.7766 50.2492Z" fill="#16216B"/>
</svg>
