<svg width="23" height="24" viewBox="0 0 23 24" fill="none" xmlns="http://www.w3.org/2000/svg">
<path d="M10.515 0.85075C10.8541 0.716417 11.23 0.716417 11.568 0.85075C12.6578 1.28517 12.8712 2.95675 14.1571 3.04992C15.0628 3.11492 15.9522 2.36092 16.8611 2.58733C17.2273 2.67833 17.5436 2.91233 17.743 3.23733C18.3507 4.23617 17.5664 5.70408 18.5576 6.53283C19.2466 7.107 20.3852 7.03333 20.9843 7.73858C21.2367 8.03542 21.3602 8.42325 21.3277 8.81433C21.2324 9.97675 19.7504 10.7037 20.0765 11.956C20.3007 12.8227 21.2519 13.4326 21.3277 14.3523C21.344 14.5454 21.3221 14.7398 21.2632 14.9244C21.2042 15.109 21.1095 15.2802 20.9843 15.4281C20.2314 16.3143 18.6042 16.0228 18.1351 17.2232C17.8047 18.066 18.2283 19.132 17.743 19.9282C17.5463 20.253 17.2294 20.487 16.8611 20.5793C15.7323 20.861 14.5861 19.6477 13.5006 20.3323C12.725 20.8198 12.4476 21.966 11.568 22.3148C11.2302 22.451 10.8528 22.451 10.515 22.3148C9.63531 21.966 9.35798 20.8198 8.58231 20.3323C7.50981 19.6563 6.33115 20.8556 5.22181 20.5793C4.85375 20.4872 4.53688 20.2537 4.33998 19.9293C3.73223 18.9305 4.51656 17.4626 3.52531 16.6338C2.83631 16.0597 1.69773 16.1333 1.09865 15.4281C0.973475 15.2802 0.878712 15.109 0.819784 14.9244C0.760855 14.7398 0.738918 14.5454 0.755229 14.3523C0.831063 13.4326 1.78115 12.8227 2.00756 11.956C2.32931 10.7167 0.849479 9.95942 0.755229 8.81433C0.738918 8.62125 0.760855 8.42684 0.819784 8.24225C0.878712 8.05766 0.973475 7.8865 1.09865 7.73858C1.85156 6.85242 3.47873 7.14492 3.94781 5.9435C4.27823 5.10067 3.85465 4.03467 4.33998 3.23842C4.53823 2.91233 4.85456 2.67833 5.22181 2.58733C6.13181 2.35983 7.02015 3.116 7.92581 3.04992C9.21173 2.95675 9.42515 1.28517 10.515 0.85075Z" stroke="#16216B" stroke-width="1.5" stroke-linejoin="round"/>
</svg>
