<svg width="26" height="26" viewBox="0 0 26 26" fill="none" xmlns="http://www.w3.org/2000/svg">
<path fill-rule="evenodd" clip-rule="evenodd" d="M2.78571 0C2.0469 0 1.33834 0.293494 0.815917 0.815917C0.293494 1.33834 0 2.0469 0 2.78571L0 13.9286C0 14.6674 0.293494 15.3759 0.815917 15.8984C1.33834 16.4208 2.0469 16.7143 2.78571 16.7143H23.2143C23.9531 16.7143 24.6617 16.4208 25.1841 15.8984C25.7065 15.3759 26 14.6674 26 13.9286V2.78571C26 2.0469 25.7065 1.33834 25.1841 0.815917C24.6617 0.293494 23.9531 0 23.2143 0L2.78571 0ZM14.1607 2.70029C14.1607 2.39245 14.0384 2.09721 13.8207 1.87954C13.6031 1.66186 13.3078 1.53957 13 1.53957C12.6922 1.53957 12.3969 1.66186 12.1793 1.87954C11.9616 2.09721 11.8393 2.39245 11.8393 2.70029V3.44314C11.1709 3.52146 10.552 3.83413 10.0923 4.32563C9.63272 4.81712 9.36218 5.45562 9.32877 6.12772C9.29537 6.79981 9.50127 7.46199 9.90989 7.99664C10.3185 8.53129 10.9034 8.9038 11.5607 9.048L13.7837 9.53271C13.9627 9.56667 14.1223 9.66682 14.2307 9.81321C14.3391 9.95959 14.3884 10.1415 14.3687 10.3225C14.3491 10.5036 14.2619 10.6707 14.1245 10.7904C13.9872 10.91 13.8098 10.9736 13.6277 10.9683H12.3723C12.2221 10.9688 12.0755 10.9226 11.9527 10.8361C11.8299 10.7496 11.7371 10.627 11.687 10.4854C11.5773 10.205 11.3629 9.97827 11.0891 9.85298C10.8153 9.7277 10.5035 9.71371 10.2196 9.81397C9.9357 9.91423 9.70186 10.1209 9.56746 10.3903C9.43305 10.6598 9.40861 10.9709 9.49928 11.258C9.85957 12.2794 10.7491 13.0501 11.8393 13.2433V14.014C11.8393 14.3218 11.9616 14.6171 12.1793 14.8347C12.3969 15.0524 12.6922 15.1747 13 15.1747C13.3078 15.1747 13.6031 15.0524 13.8207 14.8347C14.0384 14.6171 14.1607 14.3218 14.1607 14.014V13.2414C14.8555 13.1183 15.4861 12.7579 15.9448 12.2217C16.4035 11.6855 16.6619 11.0067 16.6759 10.3012C16.69 9.59568 16.4587 8.90717 16.0217 8.35315C15.5847 7.79912 14.9689 7.41393 14.2796 7.26329L12.0566 6.77857C11.9299 6.75199 11.8176 6.67927 11.7415 6.57454C11.6655 6.46981 11.631 6.34054 11.6449 6.21185C11.6588 6.08315 11.72 5.96421 11.8167 5.87812C11.9134 5.79204 12.0386 5.74495 12.168 5.746H13.6277C13.7779 5.7455 13.9245 5.7917 14.0473 5.87821C14.1701 5.96472 14.2629 6.08725 14.313 6.22886C14.3599 6.37734 14.4362 6.51486 14.5373 6.63325C14.6385 6.75163 14.7624 6.84846 14.9017 6.91796C15.041 6.98747 15.1929 7.02823 15.3483 7.03782C15.5038 7.0474 15.6595 7.02563 15.8063 6.97378C15.9532 6.92193 16.088 6.84107 16.203 6.73602C16.3179 6.63096 16.4105 6.50386 16.4753 6.36227C16.5401 6.22068 16.5757 6.06751 16.5801 5.91186C16.5845 5.75622 16.5575 5.60128 16.5007 5.45629C16.3213 4.94787 16.0101 4.4962 15.599 4.1474C15.1879 3.79861 14.6916 3.56519 14.1607 3.471V2.70029ZM5.10714 6.96429C5.47655 6.96429 5.83083 7.11103 6.09204 7.37224C6.35325 7.63346 6.5 7.98773 6.5 8.35714C6.5 8.72655 6.35325 9.08083 6.09204 9.34204C5.83083 9.60325 5.47655 9.75 5.10714 9.75C4.73773 9.75 4.38346 9.60325 4.12224 9.34204C3.86103 9.08083 3.71429 8.72655 3.71429 8.35714C3.71429 7.98773 3.86103 7.63346 4.12224 7.37224C4.38346 7.11103 4.73773 6.96429 5.10714 6.96429ZM20.8929 6.96429C21.2623 6.96429 21.6165 7.11103 21.8778 7.37224C22.139 7.63346 22.2857 7.98773 22.2857 8.35714C22.2857 8.72655 22.139 9.08083 21.8778 9.34204C21.6165 9.60325 21.2623 9.75 20.8929 9.75C20.5234 9.75 20.1692 9.60325 19.908 9.34204C19.6467 9.08083 19.5 8.72655 19.5 8.35714C19.5 7.98773 19.6467 7.63346 19.908 7.37224C20.1692 7.11103 20.5234 6.96429 20.8929 6.96429ZM8.35714 18.3393C8.99786 18.3393 9.51786 18.8593 9.51786 19.5V23.2143C9.51786 23.5221 9.39557 23.8174 9.17789 24.035C8.96022 24.2527 8.66498 24.375 8.35714 24.375C8.0493 24.375 7.75407 24.2527 7.53639 24.035C7.31872 23.8174 7.19643 23.5221 7.19643 23.2143V19.5C7.19643 18.8593 7.71643 18.3393 8.35714 18.3393ZM18.8036 19.5C18.8036 19.3476 18.7735 19.1966 18.7152 19.0558C18.6569 18.915 18.5714 18.787 18.4636 18.6792C18.3558 18.5715 18.2279 18.486 18.087 18.4276C17.9462 18.3693 17.7953 18.3393 17.6429 18.3393C17.4904 18.3393 17.3395 18.3693 17.1987 18.4276C17.0578 18.486 16.9299 18.5715 16.8221 18.6792C16.7143 18.787 16.6288 18.915 16.5705 19.0558C16.5122 19.1966 16.4821 19.3476 16.4821 19.5V23.2143C16.4821 23.3667 16.5122 23.5176 16.5705 23.6585C16.6288 23.7993 16.7143 23.9273 16.8221 24.035C16.9299 24.1428 17.0578 24.2283 17.1987 24.2866C17.3395 24.345 17.4904 24.375 17.6429 24.375C17.7953 24.375 17.9462 24.345 18.087 24.2866C18.2279 24.2283 18.3558 24.1428 18.4636 24.035C18.5714 23.9273 18.6569 23.7993 18.7152 23.6585C18.7735 23.5176 18.8036 23.3667 18.8036 23.2143V19.5ZM14.1607 20.8929C14.1607 20.585 14.0384 20.2898 13.8207 20.0721C13.6031 19.8544 13.3078 19.7321 13 19.7321C12.6922 19.7321 12.3969 19.8544 12.1793 20.0721C11.9616 20.2898 11.8393 20.585 11.8393 20.8929V24.6071C11.8393 24.915 11.9616 25.2102 12.1793 25.4279C12.3969 25.6456 12.6922 25.7679 13 25.7679C13.3078 25.7679 13.6031 25.6456 13.8207 25.4279C14.0384 25.2102 14.1607 24.915 14.1607 24.6071V20.8929Z" fill="#2D8CDB"/>
</svg>
