<svg width="30" height="30" viewBox="0 0 30 30" fill="none" xmlns="http://www.w3.org/2000/svg">
<path fill-rule="evenodd" clip-rule="evenodd" d="M11.8501 0.471479C11.7029 0.313578 11.5255 0.186931 11.3283 0.0990909C11.1312 0.0112509 10.9184 -0.0359816 10.7026 -0.0397889C10.4868 -0.0435963 10.2725 -0.00390064 10.0723 0.0769301C9.87222 0.157761 9.69044 0.278071 9.53783 0.430682C9.38521 0.583294 9.2649 0.765081 9.18407 0.965198C9.10324 1.16532 9.06355 1.37966 9.06736 1.59546C9.07116 1.81125 9.11839 2.02406 9.20623 2.2212C9.29407 2.41834 9.42072 2.59577 9.57862 2.74291L13.3929 6.55719V13.3929H6.55719L2.74291 9.57862C2.43825 9.29474 2.03529 9.14019 1.61893 9.14753C1.20257 9.15488 0.805317 9.32355 0.510861 9.618C0.216404 9.91246 0.0477356 10.3097 0.0403894 10.7261C0.0330433 11.1424 0.187593 11.5454 0.471479 11.8501L3.62148 15.0001L0.471479 18.1501C0.313578 18.2972 0.186931 18.4746 0.0990909 18.6718C0.0112509 18.8689 -0.0359816 19.0817 -0.0397889 19.2975C-0.0435963 19.5133 -0.00390064 19.7276 0.0769301 19.9278C0.157761 20.1279 0.278071 20.3097 0.430682 20.4623C0.583294 20.6149 0.765081 20.7352 0.965198 20.816C1.16532 20.8969 1.37966 20.9366 1.59546 20.9327C1.81125 20.9289 2.02406 20.8817 2.2212 20.7939C2.41834 20.706 2.59577 20.5794 2.74291 20.4215L6.55719 16.6072H13.3929V23.4429L9.57862 27.2572C9.42072 27.4043 9.29407 27.5818 9.20623 27.7789C9.11839 27.976 9.07116 28.1889 9.06736 28.4046C9.06355 28.6204 9.10324 28.8348 9.18407 29.0349C9.2649 29.235 9.38521 29.4168 9.53783 29.5694C9.69044 29.722 9.87222 29.8423 10.0723 29.9232C10.2725 30.004 10.4868 30.0437 10.7026 30.0399C10.9184 30.0361 11.1312 29.9889 11.3283 29.901C11.5255 29.8132 11.7029 29.6865 11.8501 29.5286L15.0001 26.3786L18.1501 29.5286C18.4547 29.8125 18.8577 29.9671 19.274 29.9597C19.6904 29.9524 20.0876 29.7837 20.3821 29.4892C20.6766 29.1948 20.8452 28.7975 20.8526 28.3812C20.8599 27.9648 20.7054 27.5619 20.4215 27.2572L16.6072 23.4429V16.6072H23.4429L27.2572 20.4215C27.4043 20.5794 27.5818 20.706 27.7789 20.7939C27.976 20.8817 28.1889 20.9289 28.4046 20.9327C28.6204 20.9366 28.8348 20.8969 29.0349 20.816C29.235 20.7352 29.4168 20.6149 29.5694 20.4623C29.722 20.3097 29.8423 20.1279 29.9232 19.9278C30.004 19.7276 30.0437 19.5133 30.0399 19.2975C30.0361 19.0817 29.9889 18.8689 29.901 18.6718C29.8132 18.4746 29.6865 18.2972 29.5286 18.1501L26.3786 15.0001L29.5286 11.8501C29.8125 11.5454 29.9671 11.1424 29.9597 10.7261C29.9524 10.3097 29.7837 9.91246 29.4892 9.618C29.1948 9.32355 28.7975 9.15488 28.3812 9.14753C27.9648 9.14019 27.5619 9.29474 27.2572 9.57862L23.4429 13.3929H16.6072V6.55719L20.4215 2.74291C20.7054 2.43825 20.8599 2.03529 20.8526 1.61893C20.8452 1.20257 20.6766 0.805317 20.3821 0.510861C20.0876 0.216404 19.6904 0.0477356 19.274 0.0403894C18.8577 0.0330433 18.4547 0.187593 18.1501 0.471479L15.0001 3.62148L11.8501 0.471479ZM6.36434 6.36434C6.66568 6.06337 7.07416 5.89432 7.50005 5.89432C7.92594 5.89432 8.33442 6.06337 8.63577 6.36434L10.7786 8.50719C11.0625 8.81185 11.2171 9.21481 11.2097 9.63117C11.2024 10.0475 11.0337 10.4448 10.7392 10.7392C10.4448 11.0337 10.0475 11.2024 9.63117 11.2097C9.21481 11.2171 8.81185 11.0625 8.50719 10.7786L6.36434 8.63577C6.06337 8.33442 5.89432 7.92594 5.89432 7.50005C5.89432 7.07416 6.06337 6.66568 6.36434 6.36434ZM10.7786 21.4929C10.9365 21.3458 11.0632 21.1683 11.151 20.9712C11.2389 20.7741 11.2861 20.5612 11.2899 20.3455C11.2937 20.1297 11.254 19.9153 11.1732 19.7152C11.0923 19.5151 10.972 19.3333 10.8194 19.1807C10.6668 19.0281 10.485 18.9078 10.2849 18.8269C10.0848 18.7461 9.87044 18.7064 9.65464 18.7102C9.43885 18.714 9.22604 18.7613 9.0289 18.8491C8.83176 18.9369 8.65433 19.0636 8.50719 19.2215L6.36434 21.3643C6.20644 21.5115 6.07979 21.6889 5.99195 21.886C5.90411 22.0832 5.85688 22.296 5.85307 22.5118C5.84926 22.7276 5.88896 22.9419 5.96979 23.142C6.05062 23.3422 6.17093 23.524 6.32354 23.6766C6.47615 23.8292 6.65794 23.9495 6.85806 24.0303C7.05817 24.1111 7.27252 24.1508 7.48831 24.147C7.7041 24.1432 7.91692 24.096 8.11406 24.0082C8.3112 23.9203 8.48863 23.7937 8.63577 23.6358L10.7786 21.4929ZM23.6358 6.36434C23.9367 6.66568 24.1058 7.07416 24.1058 7.50005C24.1058 7.92594 23.9367 8.33442 23.6358 8.63577L21.4929 10.7786C21.3458 10.9365 21.1683 11.0632 20.9712 11.151C20.7741 11.2389 20.5612 11.2861 20.3455 11.2899C20.1297 11.2937 19.9153 11.254 19.7152 11.1732C19.5151 11.0923 19.3333 10.972 19.1807 10.8194C19.0281 10.6668 18.9078 10.485 18.8269 10.2849C18.7461 10.0848 18.7064 9.87044 18.7102 9.65464C18.714 9.43885 18.7613 9.22604 18.8491 9.0289C18.9369 8.83176 19.0636 8.65433 19.2215 8.50719L21.3643 6.36434C21.6657 6.06337 22.0742 5.89432 22.5001 5.89432C22.9259 5.89432 23.3344 6.06337 23.6358 6.36434ZM21.4929 19.2215C21.3458 19.0636 21.1683 18.9369 20.9712 18.8491C20.7741 18.7613 20.5612 18.714 20.3455 18.7102C20.1297 18.7064 19.9153 18.7461 19.7152 18.8269C19.5151 18.9078 19.3333 19.0281 19.1807 19.1807C19.0281 19.3333 18.9078 19.5151 18.8269 19.7152C18.7461 19.9153 18.7064 20.1297 18.7102 20.3455C18.714 20.5612 18.7613 20.7741 18.8491 20.9712C18.9369 21.1683 19.0636 21.3458 19.2215 21.4929L21.3643 23.6358C21.5115 23.7937 21.6889 23.9203 21.886 24.0082C22.0832 24.096 22.296 24.1432 22.5118 24.147C22.7276 24.1508 22.9419 24.1111 23.142 24.0303C23.3422 23.9495 23.524 23.8292 23.6766 23.6766C23.8292 23.524 23.9495 23.3422 24.0303 23.142C24.1111 22.9419 24.1508 22.7276 24.147 22.5118C24.1432 22.296 24.096 22.0832 24.0082 21.886C23.9203 21.6889 23.7937 21.5115 23.6358 21.3643L21.4929 19.2215Z" fill="#16216B"/>
</svg>
