<svg width="23" height="22" viewBox="0 0 23 22" fill="none" xmlns="http://www.w3.org/2000/svg">
<path d="M9.97567 0.672355C10.0949 0.467778 10.2657 0.298035 10.471 0.18006C10.6763 0.0620843 10.9089 0 11.1457 0C11.3825 0 11.6151 0.0620843 11.8204 0.18006C12.0257 0.298035 12.1965 0.467778 12.3157 0.672355L15.3436 5.87019L21.2239 7.14419C21.4552 7.19445 21.6693 7.30447 21.8449 7.46326C22.0204 7.62206 22.1512 7.8241 22.2243 8.04923C22.2974 8.27436 22.3103 8.51472 22.2615 8.74635C22.2128 8.97798 22.1042 9.19279 21.9465 9.36935L17.9382 13.8554L18.5448 19.8409C18.5688 20.0765 18.5305 20.3144 18.4337 20.5306C18.337 20.7469 18.1852 20.934 17.9936 21.0732C17.8019 21.2125 17.5771 21.299 17.3415 21.3242C17.106 21.3493 16.8679 21.3123 16.6512 21.2167L11.1457 18.79L5.64018 21.2167C5.42342 21.3123 5.18538 21.3493 4.94983 21.3242C4.71427 21.299 4.48944 21.2125 4.29779 21.0732C4.10613 20.934 3.95436 20.7469 3.85762 20.5306C3.76089 20.3144 3.72258 20.0765 3.74651 19.8409L4.35318 13.8554L0.344841 9.37044C0.186921 9.19388 0.0780765 8.97899 0.029173 8.74722C-0.0197304 8.51544 -0.0069815 8.27489 0.0661471 8.04959C0.139276 7.82428 0.270225 7.6221 0.445923 7.46323C0.621621 7.30435 0.835919 7.19435 1.06742 7.14419L6.94776 5.87019L9.97567 0.672355Z" fill="#2D8CDB"/>
</svg>
