<svg width="22" height="14" viewBox="0 0 22 14" fill="none" xmlns="http://www.w3.org/2000/svg">
<path fill-rule="evenodd" clip-rule="evenodd" d="M7 0C5.14348 2.76642e-08 3.36301 0.737498 2.05025 2.05025C0.737498 3.36301 0 5.14348 0 7C0 8.85652 0.737498 10.637 2.05025 11.9497C3.36301 13.2625 5.14348 14 7 14H15C15.9193 14 16.8295 13.8189 17.6788 13.4672C18.5281 13.1154 19.2997 12.5998 19.9497 11.9497C20.5998 11.2997 21.1154 10.5281 21.4672 9.67878C21.8189 8.8295 22 7.91925 22 7C22 6.08075 21.8189 5.17049 21.4672 4.32122C21.1154 3.47194 20.5998 2.70026 19.9497 2.05025C19.2997 1.40024 18.5281 0.884626 17.6788 0.532843C16.8295 0.18106 15.9193 -1.36979e-08 15 0H7ZM15 3C13.9391 3 12.9217 3.42143 12.1716 4.17157C11.4214 4.92172 11 5.93913 11 7C11 8.06087 11.4214 9.07828 12.1716 9.82843C12.9217 10.5786 13.9391 11 15 11C16.0609 11 17.0783 10.5786 17.8284 9.82843C18.5786 9.07828 19 8.06087 19 7C19 5.93913 18.5786 4.92172 17.8284 4.17157C17.0783 3.42143 16.0609 3 15 3Z" fill="#0F2A66"/>
</svg>
