<svg width="70" height="68" viewBox="0 0 70 68" fill="none" xmlns="http://www.w3.org/2000/svg">
<path d="M33.0371 0C21.9362 0.0991667 11.3167 9.30417 12.0925 22.6042C12.39 27.1162 14.6592 32.4683 20.7871 39.3254C20.929 39.4818 21.1142 39.5925 21.3191 39.6433C21.5241 39.6942 21.7395 39.6829 21.9381 39.611C22.1366 39.5391 22.3093 39.4098 22.4341 39.2395C22.559 39.0692 22.6303 38.8656 22.6392 38.6546L22.7937 32.0454C22.7983 31.7688 22.6935 31.5015 22.5021 31.3017C20.5756 29.258 19.2739 26.7059 18.7507 23.9465C18.2274 21.1871 18.5045 18.3356 19.5493 15.7286C20.594 13.1216 22.3627 10.8678 24.6466 9.23334C26.9306 7.59886 29.6345 6.65188 32.4392 6.50417C39.06 6.20083 44.1379 10.1092 46.3021 14.5075C47.2937 16.5287 47.8392 18.7367 47.9062 20.9883C47.9156 21.2509 48.0239 21.5003 48.2095 21.6864C48.395 21.8725 48.6441 21.9815 48.9067 21.9917C50.3125 22.0354 51.7125 22.1783 53.0979 22.4204C53.2468 22.4479 53.3998 22.4427 53.5465 22.4053C53.6932 22.3679 53.83 22.2992 53.9475 22.2038C54.0651 22.1085 54.1606 21.9887 54.2274 21.8529C54.2942 21.7171 54.3308 21.5684 54.3346 21.4171C54.3769 18.1717 53.6703 14.9602 52.2696 12.0323C50.8689 9.10441 48.8118 6.53898 46.2583 4.53542C43.8083 2.60167 39.5617 0.0233333 33.0371 0ZM47.4454 24.3892C44.9831 24.4322 42.529 24.6859 40.11 25.1475C39.9127 25.1839 39.7297 25.2756 39.5823 25.4117C39.4349 25.5479 39.3291 25.7231 39.2772 25.917C39.2253 26.1108 39.2294 26.3154 39.2891 26.507C39.3487 26.6986 39.4614 26.8694 39.6142 26.9996L44.5579 31.185C44.6842 31.2901 44.8333 31.3641 44.9934 31.4011C45.1535 31.4381 45.32 31.437 45.4796 31.3979C48.5255 30.6928 51.7172 30.9799 54.5883 32.2175C59.78 34.5129 63.105 39.2583 63.4608 44.7708C64.0675 54.0662 56.2275 60.9263 48.0696 60.4333C46.3089 60.3428 44.5789 59.9357 42.9625 59.2317C42.7412 59.1319 42.4924 59.1107 42.2574 59.1717C42.0223 59.2327 41.8152 59.3722 41.6704 59.5671C40.8275 60.69 39.9117 61.7546 38.9287 62.7579C38.8168 62.8768 38.7336 63.0197 38.6853 63.1756C38.6371 63.3316 38.6252 63.4966 38.6506 63.6579C38.6759 63.8191 38.7378 63.9725 38.8315 64.1062C38.9252 64.2399 39.0483 64.3503 39.1912 64.4292C44.695 67.5587 50.6712 67.8125 56.7321 65.3625C66.3658 61.5592 70.2362 52.1704 69.9883 45.3921C69.7083 37.6892 65.6717 30.5987 58.0737 26.7196C55.3875 25.3487 52.1208 24.3512 47.4454 24.3892ZM9.73 27.8892C9.57277 27.9061 9.4213 27.9579 9.28667 28.0408C5.17417 30.4529 2.82333 34.0404 1.12583 39.0571C0.294583 41.6587 0 43.4613 0 46.1621C0.101349 51.6623 2.33461 56.9083 6.22888 60.7939C10.1232 64.6795 15.3741 66.901 20.8746 66.99C24.1675 67.0396 27.0112 66.3046 29.5138 65.2896C33.7429 63.4812 38.6779 60.6317 43.0762 50.9629C43.1624 50.7721 43.19 50.56 43.1557 50.3535C43.1213 50.147 43.0265 49.9553 42.8833 49.8026C42.74 49.65 42.5546 49.5433 42.3507 49.4959C42.1468 49.4486 41.9334 49.4628 41.7375 49.5367L34.8396 52.0654C34.5927 52.1566 34.3895 52.3379 34.2708 52.5729C32.8244 55.3929 30.5036 57.6686 27.6558 59.0596C17.5 63.9217 7.21292 56.21 6.51875 47.3317C6.09583 42.2537 7.95958 38.4271 10.5146 35.7175C11.3692 34.8192 11.7104 34.3262 12.4483 33.7867C12.657 33.6333 12.8016 33.4081 12.8544 33.1545C12.9072 32.901 12.8643 32.6368 12.7342 32.4129C11.9963 31.1771 11.3594 29.8837 10.8296 28.5454C10.7419 28.3318 10.5874 28.1524 10.3891 28.0341C10.1909 27.9158 9.9596 27.8649 9.73 27.8892Z" fill="#16216B"/>
</svg>
