<svg width="458" height="361" viewBox="0 0 458 361" fill="none" xmlns="http://www.w3.org/2000/svg">
<g opacity="0.15">
<path d="M8.77462 360.405C2.19788 322.937 -2.59129 282.111 6.59512 246.016C18.6397 198.726 52.0492 172.23 84.4072 166.169C116.765 160.094 149.353 170.125 181.854 173.991C214.355 177.843 249.16 174.514 275.955 145.51C313.102 105.295 325.3 26.9264 358.824 -20.4383C386.775 -59.9214 428.969 -72.953 464.444 -53.0249" fill="#16216B"/>
<path d="M8.77462 360.405C2.19788 322.937 -2.59129 282.111 6.59512 246.016C18.6397 198.726 52.0492 172.23 84.4072 166.169C116.765 160.094 149.353 170.125 181.854 173.991C214.355 177.843 249.16 174.514 275.955 145.51C313.102 105.295 325.3 26.9264 358.824 -20.4383C386.775 -59.9214 428.969 -72.953 464.444 -53.0249" stroke="white" stroke-width="3" stroke-miterlimit="10"/>
<path d="M33.3915 360.405C27.1684 324.967 22.6374 286.335 31.3267 252.196C42.7213 207.458 74.3241 182.395 104.933 176.663C135.551 170.916 166.37 180.41 197.112 184.067C227.855 187.724 260.786 184.56 286.128 157.123C321.277 119.073 332.805 44.9435 364.523 0.146317C390.964 -37.2021 430.883 -49.5322 464.436 -30.6788" fill="#16216B"/>
<path d="M33.3915 360.405C27.1684 324.967 22.6374 286.335 31.3267 252.196C42.7213 207.458 74.3241 182.395 104.933 176.663C135.551 170.916 166.37 180.41 197.112 184.067C227.855 187.724 260.786 184.56 286.128 157.123C321.277 119.073 332.805 44.9435 364.523 0.146315C390.964 -37.2021 430.883 -49.5322 464.436 -30.6788" stroke="white" stroke-width="3" stroke-miterlimit="10"/>
<path d="M58.0075 360.406C52.1477 326.984 47.8651 290.576 56.0669 258.377C66.8115 216.192 96.6076 192.562 125.476 187.158C154.345 181.74 183.405 190.696 212.398 194.13C241.392 197.578 272.44 194.592 296.328 168.723C329.47 132.852 340.339 62.9473 370.24 20.7027C395.171 -14.526 432.805 -26.1396 464.447 -8.36099" fill="#16216B"/>
<path d="M58.0075 360.406C52.1477 326.984 47.8651 290.576 56.0669 258.377C66.8115 216.192 96.6076 192.562 125.476 187.158C154.345 181.74 183.405 190.696 212.398 194.13C241.392 197.578 272.44 194.592 296.328 168.723C329.47 132.852 340.339 62.9473 370.24 20.7027C395.171 -14.526 432.805 -26.1396 464.447 -8.36099" stroke="white" stroke-width="3" stroke-miterlimit="10"/>
<path d="M82.6204 360.406C77.1143 329.014 73.0899 294.8 80.7946 264.557C90.8892 224.925 118.879 202.728 145.998 197.652C173.118 192.562 200.419 200.966 227.653 204.205C254.887 207.445 284.052 204.638 306.497 180.336C337.632 146.645 347.841 80.9645 375.936 41.2874C399.356 8.19325 434.715 -2.7187 464.435 13.9851" fill="#16216B"/>
<path d="M82.6204 360.406C77.1143 329.014 73.0899 294.8 80.7946 264.557C90.8892 224.925 118.879 202.728 145.998 197.652C173.118 192.562 200.419 200.966 227.653 204.205C254.887 207.445 284.052 204.638 306.497 180.336C337.632 146.645 347.841 80.9645 375.936 41.2874C399.356 8.19325 434.715 -2.7187 464.435 13.9851" stroke="white" stroke-width="3" stroke-miterlimit="10"/>
<path d="M107.237 360.405C102.085 331.028 98.3279 299.023 105.526 270.736C114.961 233.656 141.153 212.892 166.523 208.145C191.894 203.383 217.436 211.25 242.911 214.28C268.386 217.311 295.678 214.683 316.68 191.949C345.807 160.422 355.366 98.9809 381.644 61.8564C403.554 30.8969 436.638 20.6865 464.437 36.3156" fill="#16216B"/>
<path d="M107.237 360.405C102.085 331.028 98.3279 299.023 105.526 270.736C114.961 233.656 141.153 212.892 166.523 208.145C191.894 203.383 217.436 211.25 242.911 214.28C268.386 217.311 295.678 214.683 316.68 191.949C345.807 160.422 355.366 98.9809 381.644 61.8564C403.554 30.8969 436.638 20.6865 464.437 36.3156" stroke="white" stroke-width="3" stroke-miterlimit="10"/>
</g>
</svg>
