<svg width="308" height="245" viewBox="0 0 308 245" fill="none" xmlns="http://www.w3.org/2000/svg">
<path d="M236.247 243.55L237.461 241.645M236.247 243.55L235.448 243.208M236.247 243.55L229.569 247.779M236.247 243.55L249.91 247.865M249.91 247.865L228.809 260.595L216.536 256.832M249.91 247.865L262.027 250.046M249.91 247.865L264.209 224.371M216.536 256.832L211.683 260.09M216.536 256.832L226.736 249.981L240.914 238.961M262.027 250.046L240.481 262.583M262.027 250.046L272.407 250.097M264.209 224.371L258.314 222.428M264.209 224.371L275.736 226.623L262.028 250.047M264.209 224.371L265.429 214.602M211.683 260.09L217.046 260.996L240.481 262.583M211.683 260.09L211.313 260.339M240.914 238.961L253.575 227.498M240.914 238.961L244.817 227.103L228.457 239.796L220.782 219.742M253.575 227.498L264.49 215.82L273.47 204.154M253.575 227.498L259.411 213.922M273.47 204.154L277.341 197.74M273.47 204.154L282.277 187.159M285.595 226.843L293.647 225.067M285.595 226.843L275.736 226.624L277.747 198.717M285.595 226.843L286.373 199.086M285.595 226.843L272.407 250.097M293.647 225.067L280.9 248.063L272.407 250.097M293.647 225.067L299.786 221.373M293.647 225.067L293.428 197.713M277.746 198.716L276.864 198.529M286.372 199.086L277.746 198.717L277.341 197.74M286.372 199.086L293.428 197.713M286.372 199.086L281.901 189.809M277.341 197.74L280.371 192.721L285.454 183.056M285.454 183.056L293.428 197.713M285.454 183.056L288.43 177.402M240.481 262.583L250.515 262.541L258.764 260.511L280.899 248.064L287.396 244.032L291.833 238.118L303.952 215.868M240.481 262.583L228.808 260.595L212.412 259.601M211.313 260.339L194.943 269.828L177.95 278.255M211.313 260.339L210.646 251.743L191.737 262.696L182.103 243.922L182.056 243.831M303.952 215.868L306.118 208.688M303.952 215.868L299.786 221.373M303.952 215.868L302.486 190.001M272.407 250.097L250.515 262.54M306.118 208.688L306.294 199.989L304.566 176.364M306.118 208.688L304.401 183.859M299.786 221.373L298.819 194.655M299.786 221.373L287.397 244.032M302.486 190.001L304.401 183.859M302.486 190.001L290.902 172.386M304.566 176.364L303.014 167.662M304.566 176.364L304.401 183.859M304.566 176.364L294.718 163.487M304.401 183.859L292.908 167.707M303.014 167.662L299.801 157.917M303.014 167.662L296.099 159.217M294.718 163.487L292.908 167.707M294.718 163.487L295.538 161.575M299.801 157.917L297.579 152.995M299.801 157.917L297.133 154.869M297.579 152.995L298.335 149.816L298.562 139.017L294.842 114.657M297.579 152.995L296.099 159.217M296.099 159.217L295.538 161.575M294.842 114.657L292.462 104.688M294.842 114.657L277.476 95.34M294.842 114.657L294.574 125.828M292.462 104.688L287.538 96.068L270.717 77.761M292.462 104.688L275.32 85.905M293.428 197.713L298.82 194.655M298.82 194.655L302.487 190.001M298.82 194.655L288.43 177.402M288.43 177.402L290.169 174.096M290.902 172.386L290.169 174.096M290.902 172.386L292.908 167.707M290.169 174.096L282.277 187.159M290.169 174.096L285.923 151.043M295.538 161.575L291.603 138.025M214.652 52.608L216.7 56.432M219.586 56.921L214.651 52.608L201.717 42.233M219.586 56.921L222.164 57.357M219.586 56.921L216.7 56.433L216.689 56.431M201.717 42.233L206.174 48M201.717 42.233L188.736 32.737M222.164 57.357L243.721 62.023L254.737 65.752M222.164 57.357L200.175 66.798M222.164 57.357L231.732 60.613M216.689 56.431L211.041 55.473M216.689 56.431L206.175 48M211.041 55.473L198.564 54.967M211.041 55.473L191.254 65.224M198.564 54.967L194 55.253M198.564 54.967L181.206 64.77M206.174 48L204.157 55.194M206.174 48L195.614 40.279M188.736 32.737L175.901 24.269L163.405 16.964M188.736 32.737L195.615 40.279M163.405 16.964L151.441 10.946M163.405 16.964L175.059 27.498M151.441 10.946L140.201 6.329L156.32 18.951L165.383 22.65L151.441 10.946ZM175.059 27.498L185.189 33.407M175.059 27.498L165.383 22.648L170.646 44.219M175.059 27.498L178.027 47.867M140.201 6.33L129.872 3.203M129.872 3.203L120.633 1.642L97.381 1.5L88.14 1.57L80.488 3.52M129.872 3.203L148.021 16.474M80.488 3.52L59.213 17.003L52.898 21.113M80.488 3.52L106.096 3.419M80.488 3.52L74.59 7.36L52.898 21.113M52.898 21.113L48.555 27.172L37.572 50.159L35.348 57.901L35.213 66.995L35.209 67.337M35.209 67.337L38.422 91.065L40.175 100.769M35.209 67.337L37.201 78.33M35.209 67.337L46.244 44.862M148.021 16.474L156.319 18.95L163.746 41.467M148.021 16.474L140.63 15.277M148.021 16.474L157.446 39.657M40.175 100.769L43.782 111.65M40.175 100.769L37.201 78.33M37.201 78.33L48.419 56.257L52.842 69.127M37.201 78.33L41.334 90.709L43.782 111.65M43.782 111.65L46.222 116.989M46.222 116.989L48.456 121.877M46.222 116.989L36.798 124.85M48.456 121.877L48.736 122.489L49.206 123.519M48.456 121.877L36.798 124.85M36.798 124.85L25.738 135.448M49.206 123.519L56.374 136.169M49.206 123.519L47.568 104.261M56.374 136.169L65.165 149.361M56.374 136.169L55.821 118.743M65.165 149.361L74.172 161.193M65.165 149.361L65.957 133.884L55.821 118.743M74.172 161.193L75.428 162.844L75.523 162.956M74.172 161.193L51.533 149.388L26.691 147.488M55.821 118.743L68.218 98.382M55.821 118.743L47.664 104.427L47.568 104.261M68.218 98.382L90.318 80.745M68.218 98.382L59.471 83.251L47.568 104.261M68.218 98.382L78.942 114.228M75.523 162.956L73.263 167.11L90.828 186.642M75.523 162.956L86.972 176.355M86.972 176.355L92.944 182.644M86.972 176.355L91.128 164.953M92.944 182.644L93.423 183.15M92.944 182.644L90.828 186.642M91.128 164.953L77.801 149.389M91.128 164.953L105.518 146.826M91.128 164.953L105.68 180.259M93.423 183.15L97.678 187.63M93.423 183.15L94.665 188.238M90.828 186.642L89.934 189.167M90.828 186.642L91.34 188.908M195.615 40.279L185.19 33.409M195.615 40.279L194 55.253M194 55.253L184.949 55.823M184.949 55.823L170.421 58.009L167.829 58.6M184.949 55.823L170.206 65.429M175.901 24.267L185.189 33.407M185.189 33.407L185.771 52.338M185.771 52.338L190.556 55.469M185.771 52.338L178.027 47.865M185.771 52.338L184.499 55.889M178.027 47.867L170.645 44.22M178.027 47.867L175.648 56.645L175.484 57.247M170.645 44.22L163.746 41.467M170.645 44.22L167.829 58.6M163.746 41.467L157.446 39.657M163.746 41.467L161.315 60.084M167.829 58.6L155.839 61.332M155.839 61.332L157.446 39.657M155.839 61.332L146.088 69.972M140.63 15.277L134.283 15.399M140.63 15.277L151.855 38.835M140.63 15.277L120.634 1.642L112.657 1.704M157.446 39.657L151.855 38.835M134.283 15.399L112.657 1.704M134.283 15.399L147.073 39.022L151.855 38.835M134.283 15.399L129.101 16.859M112.657 1.704L88.141 1.57M112.657 1.704L106.096 3.419M151.855 38.835L151.017 65.605L147.49 66.115M146.088 69.972L158.436 67.175M146.088 69.972L143.738 70.673M146.088 69.972L145.408 73.958M106.096 3.419L101.093 6.791M106.096 3.419L129.103 16.859M101.093 6.791L74.59 7.361L70.59 13.07M101.093 6.791L97.763 11.794M101.093 6.791L125.191 19.651M129.103 16.859L143.192 40.229M129.103 16.859L125.193 19.653M143.192 40.229L147.074 39.023L147.491 66.116L144.517 67.126M143.192 40.229L144.517 67.126M143.192 40.229L140.286 42.445L125.193 19.653M144.517 67.126L142.684 68.597M144.517 67.126L143.228 69.665L143.738 70.673M125.193 19.653L122.644 23.756M143.738 70.673L143.794 70.78L144.424 72.02L144.495 72.16L145.17 73.49L145.582 74.299M143.228 69.666L142.201 67.646L142.2 67.644L141.961 67.174L139.41 60.642L137.964 54.816L121.874 35.659M68.601 20.591L70.59 13.071L48.554 27.171L46.304 35.121M70.589 13.069L97.763 11.794M97.763 11.794L96.203 18.376M97.763 11.794L122.369 23.622L122.642 23.754M138.417 45.645L140.284 42.443L142.198 67.642M138.417 45.645L137.633 49.79M138.417 45.645L122.643 23.754L121.522 29.114M138.417 45.645L139.984 62.116M137.633 49.79L137.962 54.814M137.633 49.79L138.322 56.267M137.633 49.79L121.522 29.114M121.522 29.114L96.203 18.375M121.522 29.114L121.872 35.658M96.203 18.375L68.6 20.589M96.203 18.375L96.474 26.449L121.872 35.658M121.872 35.658L123.709 43.285M46.305 35.119L68.6 20.589M46.305 35.119L35.347 57.9M46.305 35.119L46.243 44.86M68.6 20.589L68.601 20.732L68.705 29.826M68.705 29.826L46.243 44.86M68.705 29.826L70.95 40.649L48.418 56.256L46.243 44.86M68.706 29.827L96.475 26.45L98.61 35.897M98.61 35.897L70.951 40.65L75.337 52.887M98.61 35.897L102.6 46.567M98.61 35.897L123.71 43.285M150.214 81.893L145.581 74.297L131.772 61.273M150.214 81.893L154.269 87.663M150.214 81.893L140.017 73.152L139.942 73.087L137.882 71.321M131.772 61.273L137.882 71.321M131.772 61.273L127.023 51.871M131.772 61.273L108.403 58.279M137.882 71.321L145.254 81.834L125.076 83.969M137.882 71.321L115.937 70.824M154.269 87.663L154.43 87.891L154.511 88.007L155.784 89.818L160.763 96.121M154.269 87.663L161.071 86.693M160.763 96.121L161.921 97.589L162.047 97.748L162.191 97.93M160.763 96.121L160.773 95.782L161.071 86.693M161.071 86.693L170.206 65.429M162.191 97.93L166.136 102.44L166.184 102.494L169.32 106.079M162.191 97.93L153.759 92.613M169.32 106.079L177.042 114.11M169.32 106.079L163.238 103.455M177.042 114.11L185.211 121.874M177.042 114.11L173.516 114.148M185.211 121.874L189.846 125.9M185.211 121.874L184.395 124.487M189.846 125.9L189.858 125.91L191.382 127.233M189.846 125.9L189.782 125.482M153.759 92.613L145.255 81.833L155.784 89.819M153.759 92.613L135.661 97.464M153.759 92.613L163.238 103.455M189.782 125.482L199.796 101.184L197.626 96.735M189.782 125.482L188.152 122M75.337 52.887L102.6 46.567M75.337 52.887L81.823 66.332L59.472 83.252L52.842 69.127M75.337 52.887L52.842 69.127M102.6 46.567L108.403 58.279M102.6 46.567L127.023 51.873M108.403 58.279L81.823 66.333L90.318 80.745M108.403 58.279L115.937 70.824M127.023 51.873L123.749 43.388L123.71 43.288L139.408 60.643M127.023 51.873L141.96 67.172M52.842 69.127L41.335 90.708L47.568 104.261M90.318 80.745L100.686 95.854M90.318 80.745L115.937 70.824M115.937 70.824L125.076 83.969M125.076 83.969L100.686 95.854M125.076 83.969L130.888 91.379L130.895 91.387L131.081 91.625L135.661 97.464M78.942 114.228L100.686 95.856M78.942 114.228L91.454 130.484M78.942 114.228L65.958 133.883L77.801 149.389M100.686 95.854L112.743 111.367M112.743 111.367L91.454 130.484M112.743 111.367L126.264 126.978M112.743 111.367L135.661 97.464M91.454 130.484L77.801 149.389M91.454 130.484L105.518 146.825M135.661 97.464L147.494 111.046M77.801 149.389L75.428 162.843M126.264 126.978L105.518 146.826M126.264 126.978L140.983 142.368M126.264 126.978L147.494 111.046M105.518 146.826L120.858 162.918M140.983 142.368L160.346 124.444L147.749 111.313L147.494 111.046M140.983 142.368L120.859 162.917M140.983 142.368L156.606 157.224M147.494 111.046L163.238 103.455M163.238 103.455L173.516 114.148M173.516 114.148L184.395 124.487M173.516 114.148L160.345 124.445L160.778 124.855L173.966 137.392M184.395 124.487L190.375 129.68L190.556 129.837L191.238 130.43M105.68 180.259L101.441 186.764M105.68 180.259L109.999 184.368M101.441 186.764L109.999 184.368M101.441 186.764L100.06 187.15M109.999 184.368L110.313 184.28M120.859 162.917L105.68 180.257M120.859 162.917L133.547 174.987M156.606 157.224L159.706 159.905M156.606 157.224L146.664 168.071M173.966 137.392L180.36 142.936M173.966 137.392L184.395 124.488M156.606 157.225L173.967 137.393M277.586 164.652L285.922 151.043M277.586 164.652L277.282 164.264L260.436 142.792M277.586 164.652L266.703 178.599M277.586 164.652L282.277 187.159M285.923 151.043L268.544 129.86L260.436 142.792M285.923 151.043L291.603 138.025M260.436 142.792L235.528 127.726M260.436 142.792L249.901 156.057L237.105 169.402L214.93 150.839M266.703 178.599L253.446 192.616M266.703 178.599L252.614 159.697L252.598 159.675L249.901 156.056L226.202 139.25M266.703 178.599L271.971 200.518L264.491 215.82M253.446 192.616L238.044 206.424M253.446 192.616L259.411 213.923M282.277 187.159L271.97 200.519L259.411 213.923M259.411 213.923L244.817 227.104L238.044 206.424M274.112 117.499L268.543 129.86L242.754 116.488L235.528 127.727M274.112 117.499L247.784 105.737M274.112 117.499L277.091 105.928M274.112 117.499L291.603 138.025M235.528 127.727L209.861 123.648M235.528 127.727L226.202 139.25M209.861 123.648L215.77 114.645M209.861 123.648L190.831 131.385L190.522 131.509M209.861 123.648L202.295 132.861M226.202 139.25L214.93 150.839M226.202 139.25L202.296 132.86M214.93 150.839L206.163 158.531L205.218 159.361L205.047 159.51L201.906 162.267M214.93 150.839L193.198 142.113M215.77 114.645L215.98 114.208L219.935 106.017M215.77 114.645L242.755 116.488L247.784 105.737M215.77 114.645L195.176 124.631L195.039 124.697M219.935 106.017L222.305 97.914M219.935 106.017L198.257 118.148M219.935 106.017L247.784 105.737M247.784 105.737L250.557 95.664M195.039 124.697L198.257 118.148M195.039 124.697L191.253 130.408L191.237 130.431L191.003 130.786L190.782 131.117L190.71 131.227L190.522 131.509M190.522 131.509L190.159 131.95L190.001 132.14L188.419 134.054L188.331 134.161L184.775 138.465L183.222 140.036L182.845 140.42L181.226 142.059L181.133 142.152L177.892 145.435L175.307 147.68L169.994 152.292L161.222 158.907M198.257 118.148L200.129 111.978M200.129 111.978L200.64 106.293M200.129 111.978L192.349 128.755M161.222 158.907L159.807 159.839L159.706 159.906L151.735 165.156M161.222 158.907L171.07 160.035L182.726 151.229M151.735 165.156L158.448 168.36M151.735 165.156L146.663 168.072L146.609 168.104L141.71 170.92L131.335 176.091M158.448 168.36L171.07 160.036L187.369 173.31M158.448 168.36L150.559 172.896L150.406 172.986L145.097 176.039L144.893 175.731L141.71 170.918M158.448 168.36L171.596 183.746L187.369 173.31M187.369 173.31L201.906 162.267M201.906 162.267L222.269 182.56M201.906 162.267L182.726 151.231M222.269 182.56L237.104 169.401L253.446 192.614M222.269 182.56L205.67 195.269M222.269 182.56L238.044 206.424M131.335 176.091L131.277 182.926L145.097 176.04L154.895 193.368L171.596 183.747L187.626 207.268M131.335 176.091L121.482 180.283L120.803 180.571M120.803 180.571L110.313 184.28M120.803 180.571L117.253 188.885M110.313 184.28L103.296 193.807M100.06 187.15L98.961 187.371L90.233 189.133M100.06 187.15L89.673 197.602M90.233 189.133L85.74 192.793L85.625 192.887L76.642 200.205M90.233 189.133L87.899 189.402M89.673 197.602L76.817 200.171L76.644 200.205M89.673 197.602L103.296 193.807M87.899 189.402L81.009 190.198L78.573 190.237L78.136 190.243L72.556 190.332M87.899 189.402L71.506 171.876L70.736 176.35L44.436 167.787M72.556 190.332L65.015 189.544M72.556 190.332L53.294 201.712M25.738 135.448L16.178 146.162L8.286 156.828M25.738 135.448L40.747 130.169M8.286 156.828L2.208 167.28M8.286 156.828L26.691 147.488M16.179 146.162L33.031 138.858M33.031 138.858L40.747 130.169M33.031 138.858L26.691 147.488M33.031 138.858L56.3 142.789M2.208 167.28L-1.93 177.348M2.208 167.28L21.843 155.924M26.691 147.488L21.844 155.925M2.207 167.28L-10.517 198.186M-10.517 198.186L-12.957 209.143M-10.517 198.186L-1.93 177.348M-1.93 177.348L-4.024 186.864M-1.93 177.348L18.587 164.027M-12.957 209.143L-13 219.306L-7.585 243.154L-5.035 252.895M-12.957 209.143L-4.024 186.864M-4.024 186.864L-4.002 195.659M-4.024 186.864L16.997 171.659M0.0859995 261.436L-5.034 252.895L-10.59 228.488M0.0859995 261.436L18.163 278.508L25.583 285.447M0.0859995 261.436L7.747 268.599M0.0859995 261.436L-5.711 236.51M-10.59 228.488L-10.438 228.738L-5.711 236.51M-10.59 228.488L-1.823 203.571L2.52 210.447M25.583 285.447L35.337 290.914M25.583 285.447L7.747 268.599M7.747 268.599L17.873 274.222M-5.711 236.51L2.52 210.447M-5.711 236.51L1.605 243.204M35.337 290.914L47.297 294.776L61.284 296.929M35.337 290.914L17.873 274.222M61.284 296.929L81.598 299.414L95.4 299.747M61.284 296.929L77.073 297.298L77.358 297.335L95.4 299.747M61.284 296.929L44.943 280.319M95.4 299.747L110.496 298.497L126.612 295.668M44.943 280.319L61.47 280.605M44.943 280.319L37.183 253.919M61.47 280.605L52.999 254.038M61.47 280.605L77.073 297.297L94.388 295.843M61.47 280.605L79.627 278.983M126.612 295.668L143.444 291.297M126.612 295.668L112.913 292.568M143.444 291.297L160.669 285.458L177.95 278.255M143.444 291.297L132.299 287.512M177.95 278.255L172.111 272.434L152.164 280.759M291.603 138.025L294.574 125.828M270.717 77.761L263.8 71.015M270.717 77.761L245.476 71.104M270.717 77.761L275.32 85.905M275.32 85.905L277.476 95.34M275.32 85.905L249.35 78.213M277.476 95.34L277.09 105.927M277.476 95.34L251.068 86.44M263.8 71.015L254.737 65.752M263.8 71.015L239.559 65.212M254.737 65.752L231.732 60.613M245.476 71.104L249.35 78.213M245.476 71.104L239.558 65.212M245.476 71.104L218.652 78.047M249.35 78.213L251.068 86.44M249.35 78.213L221.629 83.818M231.732 60.613L239.559 65.212M231.732 60.613L207.81 69.481M200.175 66.798L207.81 69.481M200.175 66.798L183.803 87.948M200.175 66.798L191.254 65.224M207.81 69.481L214.01 73.246M207.81 69.481L189.547 90.07M181.206 64.77L191.254 65.224M181.206 64.77L170.206 65.429M181.206 64.77L169.438 86.255M170.206 65.429L158.436 67.175M294.574 125.828L277.09 105.927M294.574 125.828L298.335 149.815M250.557 95.664L277.09 105.927M250.557 95.664L251.068 86.44M250.557 95.664L222.304 97.915M200.64 106.293L222.863 90.475M200.64 106.293L199.795 101.184M200.64 106.293L191.381 127.233M251.068 86.44L222.863 90.475M222.304 97.915L222.863 90.475M222.304 97.915L200.129 111.98M222.863 90.475L221.629 83.818M221.629 83.818L218.652 78.047M221.629 83.818L199.795 101.186M218.652 78.047L214.01 73.246M218.652 78.047L197.625 96.735M214.01 73.246L194.186 93.013M197.626 96.735L194.186 93.012M197.626 96.735L188.152 122M188.152 122L185.546 119.067M188.152 122L188.679 124.886M194.186 93.013L189.547 90.07M194.186 93.013L185.546 119.067M185.546 119.067L186.259 122.785M185.546 119.067L182.015 116.731M239.559 65.212L214.011 73.245M189.547 90.07L182.015 116.731M189.547 90.07L183.803 87.948M182.015 116.731L178.264 115.271M182.015 116.731L182.554 119.348M183.803 87.948L177.06 86.671M183.803 87.948L177.694 114.731M191.254 65.224L177.06 86.671M177.06 86.671L169.438 86.255M177.06 86.671L173.125 110.037M169.438 86.255L161.071 86.694M169.438 86.255L167.593 104.106M158.436 67.175L152.819 85.6M158.436 67.175L170.421 58.01M40.747 130.169L55.271 134.222M40.747 130.168L48.737 122.488M56.3 142.789L58.85 139.883M56.3 142.789L51.534 149.387L47.924 155.823M56.3 142.789L63.874 147.421M21.844 155.925L18.587 164.027M21.844 155.925L47.924 155.823M47.924 155.823L45.541 161.991M47.924 155.823L72.865 166.931L73.265 167.109L71.507 171.875L45.541 161.991M18.587 164.027L16.997 171.659M18.587 164.027L45.541 161.991M16.997 171.659L17.127 178.686M16.997 171.659L44.437 167.786M45.541 161.991L44.437 167.786M44.437 167.786L44.647 173.109M83.802 189.874L70.738 176.349L70.979 180.451L44.646 173.107M-10.588 228.488L-12.998 219.305L-4.001 195.658L-1.822 203.57L18.999 184.981M-4.002 195.658L17.126 178.685M17.126 178.685L19 184.98M17.126 178.685L44.646 173.107M44.646 173.107L46.18 177.858M72.235 184.111L70.979 180.452L80.627 190.204M72.235 184.111L74.495 187.26M72.235 184.111L78.221 190.071M2.52 210.447L8.993 216.145M2.52 210.447L22.612 190.422M8.993 216.145L27.932 194.901M8.993 216.145L1.605 243.204M8.993 216.145L17.526 220.54L11.287 248.416M1.605 243.204L11.285 248.416M22.612 190.422L18.998 184.98L46.178 177.859M22.612 190.422L27.932 194.901M22.612 190.422L48.612 182.084L49.028 181.951M46.178 177.859L49.028 181.951M46.178 177.859L72.234 184.11M27.932 194.901L34.89 198.325M27.932 194.901L53.159 185.305M49.028 181.951L53.159 185.305M49.028 181.951L74.495 187.259L77.73 189.838L78.574 190.236M53.159 185.305L58.515 187.854M53.159 185.305L77.729 189.837M17.873 274.222L11.285 248.416M17.873 274.222L30.331 278.166M11.285 248.416L23.204 252.021L30.331 278.165M7.747 268.598L1.605 243.203M34.89 198.325L43.389 200.615L65.015 189.542L58.515 187.854M34.89 198.325L58.515 187.854M58.515 187.854L73.148 190.322M28.002 223.527L17.527 220.541L34.892 198.326M28.002 223.527L23.204 252.023L37.184 253.92M28.002 223.527L40.262 225.025L37.183 253.919M28.002 223.527L43.217 200.872L43.39 200.616L53.295 201.713M37.183 253.919L52.999 254.038M53.295 201.713L40.262 225.024L54.107 224.979M53.295 201.713L64.444 201.579M47.297 294.777L30.332 278.166L44.943 280.32M52.999 254.038L70.376 252.345M52.999 254.038L54.107 224.98M54.107 224.98L69.297 223.37M54.107 224.98L64.444 201.579M64.444 201.579L76.644 200.205M64.444 201.579L81.011 190.196M76.644 200.205L69.297 223.369M94.388 295.843L110.497 298.496M94.388 295.843L112.915 292.567M94.388 295.843L79.627 278.983M79.627 278.983L99.081 275.455M70.377 252.345L79.627 278.984M70.377 252.345L88.998 248.845M70.377 252.345L69.297 223.369M88.998 248.845L108.512 243.584M88.998 248.845L85.556 220.202M69.297 223.369L85.557 220.203M112.915 292.567L132.3 287.512M112.915 292.567L99.081 275.455M99.081 275.455L119.46 270.066M108.512 243.584L128.533 236.651M108.512 243.584L102.581 215.524L93.805 217.935L93.552 218.005L92.92 218.179L92.868 218.193L85.556 220.202M108.512 243.584L119.46 270.067M85.556 220.202L89.674 197.601M103.296 193.807L102.581 215.525L120.041 209.413M103.296 193.807L117.253 188.885M132.3 287.512L152.165 280.759M132.3 287.512L119.46 270.066M119.46 270.066L140.364 262.905M99.08 275.457L88.998 248.846M128.533 236.651L148.664 228.17L161.372 254.102L140.364 262.905M128.533 236.651L120.041 209.412M120.041 209.413L137.596 201.98L148.664 228.171L168.497 218.311L182.057 243.831M120.041 209.413L117.254 188.886M117.253 188.885L131.278 182.925L131.387 183.255L137.596 201.979L154.897 193.366M152.165 280.759L160.67 285.457M152.165 280.759L140.364 262.905M140.364 262.905L128.534 236.65M182.057 243.831L161.373 254.103L172.112 272.435L191.739 262.697L194.944 269.829M182.057 243.831L201.995 232.298M201.995 232.298L220.782 219.742M201.995 232.298L210.647 251.742L228.458 239.796L226.737 249.98M154.895 193.367L168.495 218.31L187.626 207.268M187.626 207.268L201.994 232.298M187.626 207.268L205.67 195.269M205.67 195.269L205.501 195.065L187.37 173.31M205.67 195.269L220.782 219.743M220.782 219.742L238.044 206.422M182.726 151.229L190.538 144.428L190.547 144.42L193.198 142.112M182.726 151.229L169.995 152.29M193.198 142.112L202.296 132.86M193.198 142.112L177.892 145.433M202.296 132.86L184.776 138.464" stroke="url(#paint0_linear_228_400)" stroke-width="3" stroke-miterlimit="10" stroke-linecap="round" stroke-linejoin="round"/>
<defs>
<linearGradient id="paint0_linear_228_400" x1="255.581" y1="59.544" x2="40.134" y2="333.06" gradientUnits="userSpaceOnUse">
<stop stop-color="#E9EBF1"/>
<stop offset="1" stop-color="#E9EBF1" stop-opacity="0"/>
</linearGradient>
</defs>
</svg>
