<svg width="235" height="229" viewBox="0 0 235 229" fill="none" xmlns="http://www.w3.org/2000/svg">
<g opacity="0.15">
<path d="M-72.993 63.4879C-48.824 46.0512 -20.411 45.0017 2.54431 60.7033C22.449 74.3244 37.5811 99.1182 56.1366 116.202C74.6944 133.294 100.376 141.513 119.464 121.096C132.569 107.08 139.317 82.5629 140.881 59.2115C142.444 35.8517 139.616 12.9448 137.612 -9.90597C135.613 -32.761 134.491 -56.6112 139.301 -79.3292C145.405 -108.124 161.374 -132.78 180.353 -142.725" fill="#16216B"/>
<path d="M-72.993 63.4879C-48.824 46.0512 -20.411 45.0017 2.54431 60.7033C22.449 74.3244 37.5811 99.1182 56.1366 116.202C74.6945 133.294 100.376 141.513 119.464 121.096C132.569 107.08 139.317 82.5629 140.881 59.2115C142.444 35.8517 139.616 12.9448 137.612 -9.90597C135.613 -32.761 134.491 -56.6112 139.301 -79.3292C145.405 -108.124 161.374 -132.78 180.353 -142.725" stroke="#D8D8D8" stroke-miterlimit="10"/>
<path d="M-65.3916 56.0727C-42.7353 39.7242 -16.0996 38.7477 5.41987 53.4561C24.0794 66.2203 38.2646 89.4665 55.6565 105.483C73.0566 121.503 97.1278 129.209 115.02 110.068C127.305 96.9255 133.632 73.947 135.095 52.0561C136.565 30.161 133.906 8.68267 132.028 -12.74C130.151 -34.1626 129.103 -56.5258 133.615 -77.8142C139.337 -104.804 154.306 -127.921 172.099 -137.236" fill="#16216B"/>
<path d="M-65.3916 56.0727C-42.7353 39.7242 -16.0996 38.7477 5.41987 53.4561C24.0794 66.2203 38.2646 89.4665 55.6565 105.483C73.0566 121.503 97.1278 129.209 115.02 110.068C127.305 96.9255 133.632 73.947 135.095 52.0561C136.565 30.161 133.906 8.68267 132.028 -12.7399C130.151 -34.1626 129.103 -56.5258 133.615 -77.8142C139.337 -104.804 154.306 -127.921 172.099 -137.236" stroke="#D8D8D8" stroke-miterlimit="10"/>
<path d="M-58.0739 48.85C-36.9281 33.5981 -12.0685 32.6735 8.00824 46.4139C25.4226 58.3212 38.6609 80.02 54.8951 94.9644C71.1316 109.917 93.598 117.106 110.293 99.2414C121.761 86.9802 127.659 65.5361 129.028 45.1015C130.396 24.667 127.917 4.62983 126.166 -15.3646C124.416 -35.359 123.437 -56.2226 127.648 -76.0982C132.993 -101.287 146.959 -122.853 163.565 -131.546" fill="#16216B"/>
<path d="M-58.0739 48.85C-36.9281 33.5981 -12.0685 32.6735 8.00824 46.4139C25.4226 58.3212 38.6609 80.02 54.8951 94.9644C71.1316 109.917 93.598 117.106 110.293 99.2414C121.761 86.9802 127.659 65.5361 129.028 45.1015C130.396 24.667 127.916 4.62984 126.166 -15.3646C124.416 -35.359 123.437 -56.2226 127.648 -76.0982C132.993 -101.287 146.959 -122.853 163.565 -131.546" stroke="#D8D8D8" stroke-miterlimit="10"/>
<path d="M-50.1925 41.2174C-30.5594 27.0538 -7.47702 26.2021 11.1639 38.9493C27.3296 50.0124 39.6245 70.1509 54.6951 84.0279C69.7657 97.9049 90.6297 104.585 106.131 88.0048C116.774 76.6209 122.257 56.7112 123.524 37.7372C124.794 18.7716 122.495 0.154546 120.868 -18.399C119.245 -36.9652 118.334 -56.3377 122.244 -74.7921C127.206 -98.1764 140.174 -118.202 155.592 -126.274" fill="#16216B"/>
<path d="M-50.1925 41.2174C-30.5594 27.0538 -7.47702 26.2021 11.1639 38.9493C27.3296 50.0124 39.6245 70.1509 54.6951 84.0279C69.7657 97.9048 90.6297 104.585 106.131 88.0048C116.774 76.6209 122.257 56.7112 123.524 37.7372C124.794 18.7716 122.495 0.15455 120.868 -18.399C119.245 -36.9652 118.334 -56.3377 122.244 -74.7921C127.206 -98.1764 140.174 -118.202 155.592 -126.274" stroke="#D8D8D8" stroke-miterlimit="10"/>
<path d="M-42.5894 33.7848C-24.4749 20.7135 -3.17206 19.9263 14.0377 31.6972C28.9584 41.9035 40.3005 60.4988 54.2134 73.3041C68.1263 86.1094 87.3798 92.277 101.684 76.9724C111.508 66.4616 116.57 48.0905 117.736 30.5769C118.911 13.0676 116.785 -4.10416 115.283 -21.2381C113.781 -38.372 112.944 -56.2575 116.551 -73.2781C121.128 -94.866 133.097 -113.353 147.326 -120.803" fill="#16216B"/>
<path d="M-42.5894 33.7848C-24.4749 20.7135 -3.17207 19.9263 14.0377 31.6972C28.9584 41.9035 40.3005 60.4988 54.2134 73.3041C68.1263 86.1094 87.3798 92.277 101.684 76.9724C111.508 66.4616 116.57 48.0905 117.736 30.5769C118.911 13.0676 116.785 -4.10416 115.283 -21.2381C113.781 -38.372 112.944 -56.2575 116.551 -73.2781C121.128 -94.866 133.097 -113.353 147.326 -120.803" stroke="#D8D8D8" stroke-miterlimit="10"/>
</g>
</svg>
