<svg width="23" height="22" viewBox="0 0 23 22" fill="none" xmlns="http://www.w3.org/2000/svg">
<path d="M19.2242 12.7382C18.5114 13.4922 18.0448 14.9533 18.1857 15.9831L18.8299 20.635C18.9722 21.6656 18.3236 22.1423 17.3883 21.6959L13.1626 19.6766C12.2273 19.2288 10.7013 19.2353 9.76818 19.6896L5.56051 21.7421C4.62812 22.1964 3.97668 21.7234 4.11101 20.6935L4.71984 16.0359C4.85418 15.0053 4.37679 13.5485 3.65818 12.7996L0.412509 9.41381C-0.306824 8.66486 -0.060546 7.8957 0.957787 7.70575L5.55834 6.84775C6.57668 6.65781 7.80879 5.75142 8.29773 4.83348L10.5012 0.690087C10.9887 -0.227857 11.7933 -0.230024 12.2873 0.683587L14.5226 4.80964C15.018 5.72325 16.2559 6.62025 17.2771 6.80153L21.8835 7.62559C22.9032 7.80759 23.1553 8.57459 22.4425 9.32931L19.2242 12.7382Z" fill="#FFBC35"/>
</svg>
